<mxfile host="app.diagrams.net" agent="Mozilla/5.0 (Windows NT 10.0; Win64; x64) AppleWebKit/537.36 (KHTML, like Gecko) Chrome/131.0.0.0 Safari/537.36 OPR/116.0.0.0" version="26.0.16">
  <diagram name="Страница — 1" id="Layrc5BZ7pRTJc2lWRi6">
    <mxGraphModel dx="4329" dy="544" grid="0" gridSize="10" guides="1" tooltips="1" connect="1" arrows="1" fold="1" page="0" pageScale="1" pageWidth="1654" pageHeight="1169" math="0" shadow="0">
      <root>
        <mxCell id="0" />
        <mxCell id="1" parent="0" />
        <mxCell id="wfmsOxuhuRaIuoQMw9XY-1" value="Администратор" style="shape=umlActor;verticalLabelPosition=bottom;verticalAlign=top;html=1;outlineConnect=0;" vertex="1" parent="1">
          <mxGeometry x="-1382" y="1356" width="30" height="60" as="geometry" />
        </mxCell>
        <mxCell id="wfmsOxuhuRaIuoQMw9XY-31" style="rounded=0;orthogonalLoop=1;jettySize=auto;html=1;exitX=1;exitY=0.3333333333333333;exitDx=0;exitDy=0;exitPerimeter=0;entryX=0;entryY=0.5;entryDx=0;entryDy=0;endArrow=none;startFill=0;" edge="1" parent="1" source="wfmsOxuhuRaIuoQMw9XY-2" target="wfmsOxuhuRaIuoQMw9XY-30">
          <mxGeometry relative="1" as="geometry" />
        </mxCell>
        <mxCell id="wfmsOxuhuRaIuoQMw9XY-2" value="Клиент" style="shape=umlActor;verticalLabelPosition=bottom;verticalAlign=top;html=1;outlineConnect=0;" vertex="1" parent="1">
          <mxGeometry x="-937" y="1343" width="30" height="60" as="geometry" />
        </mxCell>
        <mxCell id="wfmsOxuhuRaIuoQMw9XY-3" value="Мастер" style="shape=umlActor;verticalLabelPosition=bottom;verticalAlign=top;html=1;outlineConnect=0;" vertex="1" parent="1">
          <mxGeometry x="-614" y="1343" width="30" height="60" as="geometry" />
        </mxCell>
        <mxCell id="wfmsOxuhuRaIuoQMw9XY-4" value="Удаление постов мастера" style="ellipse;whiteSpace=wrap;html=1;" vertex="1" parent="1">
          <mxGeometry x="-1564" y="1303" width="120" height="55" as="geometry" />
        </mxCell>
        <mxCell id="wfmsOxuhuRaIuoQMw9XY-5" style="rounded=0;orthogonalLoop=1;jettySize=auto;html=1;exitX=0;exitY=0.3333333333333333;exitDx=0;exitDy=0;exitPerimeter=0;endArrow=none;startFill=0;entryX=1;entryY=0.5;entryDx=0;entryDy=0;" edge="1" parent="1" target="wfmsOxuhuRaIuoQMw9XY-4" source="wfmsOxuhuRaIuoQMw9XY-1">
          <mxGeometry relative="1" as="geometry">
            <mxPoint x="-1856" y="978" as="sourcePoint" />
            <mxPoint x="-1718" y="1358" as="targetPoint" />
          </mxGeometry>
        </mxCell>
        <mxCell id="wfmsOxuhuRaIuoQMw9XY-6" value="Просмотр постов мастера" style="ellipse;whiteSpace=wrap;html=1;" vertex="1" parent="1">
          <mxGeometry x="-1576" y="1228" width="120" height="55" as="geometry" />
        </mxCell>
        <mxCell id="wfmsOxuhuRaIuoQMw9XY-7" style="rounded=0;orthogonalLoop=1;jettySize=auto;html=1;exitX=0;exitY=0.3333333333333333;exitDx=0;exitDy=0;exitPerimeter=0;endArrow=none;startFill=0;entryX=1;entryY=0.5;entryDx=0;entryDy=0;" edge="1" parent="1" target="wfmsOxuhuRaIuoQMw9XY-6" source="wfmsOxuhuRaIuoQMw9XY-1">
          <mxGeometry relative="1" as="geometry">
            <mxPoint x="-1394" y="1301" as="sourcePoint" />
            <mxPoint x="-1730" y="1283" as="targetPoint" />
          </mxGeometry>
        </mxCell>
        <mxCell id="wfmsOxuhuRaIuoQMw9XY-8" value="Назначение роли мастера" style="ellipse;whiteSpace=wrap;html=1;" vertex="1" parent="1">
          <mxGeometry x="-1570" y="1411" width="120" height="55" as="geometry" />
        </mxCell>
        <mxCell id="wfmsOxuhuRaIuoQMw9XY-9" style="rounded=0;orthogonalLoop=1;jettySize=auto;html=1;endArrow=none;startFill=0;entryX=1;entryY=0;entryDx=0;entryDy=0;exitX=0;exitY=0.3333333333333333;exitDx=0;exitDy=0;exitPerimeter=0;" edge="1" parent="1" target="wfmsOxuhuRaIuoQMw9XY-8" source="wfmsOxuhuRaIuoQMw9XY-1">
          <mxGeometry relative="1" as="geometry">
            <mxPoint x="-1388" y="1386" as="sourcePoint" />
            <mxPoint x="-1724" y="1466" as="targetPoint" />
          </mxGeometry>
        </mxCell>
        <mxCell id="wfmsOxuhuRaIuoQMw9XY-10" value="Отзыв роли мастера" style="ellipse;whiteSpace=wrap;html=1;" vertex="1" parent="1">
          <mxGeometry x="-1582" y="1481" width="120" height="55" as="geometry" />
        </mxCell>
        <mxCell id="wfmsOxuhuRaIuoQMw9XY-11" style="rounded=0;orthogonalLoop=1;jettySize=auto;html=1;endArrow=none;startFill=0;entryX=1;entryY=0.5;entryDx=0;entryDy=0;exitX=0;exitY=0.3333333333333333;exitDx=0;exitDy=0;exitPerimeter=0;" edge="1" parent="1" target="wfmsOxuhuRaIuoQMw9XY-10" source="wfmsOxuhuRaIuoQMw9XY-1">
          <mxGeometry relative="1" as="geometry">
            <mxPoint x="-1394" y="1446" as="sourcePoint" />
            <mxPoint x="-1736" y="1536" as="targetPoint" />
          </mxGeometry>
        </mxCell>
        <mxCell id="wfmsOxuhuRaIuoQMw9XY-12" value="Поиск пользователя" style="ellipse;whiteSpace=wrap;html=1;" vertex="1" parent="1">
          <mxGeometry x="-1281" y="1380" width="120" height="55" as="geometry" />
        </mxCell>
        <mxCell id="wfmsOxuhuRaIuoQMw9XY-13" style="rounded=0;orthogonalLoop=1;jettySize=auto;html=1;exitX=1;exitY=0.3333333333333333;exitDx=0;exitDy=0;exitPerimeter=0;endArrow=none;startFill=0;entryX=0;entryY=0.5;entryDx=0;entryDy=0;" edge="1" parent="1" target="wfmsOxuhuRaIuoQMw9XY-12" source="wfmsOxuhuRaIuoQMw9XY-1">
          <mxGeometry relative="1" as="geometry">
            <mxPoint x="-1027" y="1443.12" as="sourcePoint" />
            <mxPoint x="-1363" y="1425.12" as="targetPoint" />
          </mxGeometry>
        </mxCell>
        <mxCell id="wfmsOxuhuRaIuoQMw9XY-14" value="Просмотр информации о пользователе" style="ellipse;whiteSpace=wrap;html=1;" vertex="1" parent="1">
          <mxGeometry x="-1281" y="1449" width="120" height="55" as="geometry" />
        </mxCell>
        <mxCell id="wfmsOxuhuRaIuoQMw9XY-15" style="rounded=0;orthogonalLoop=1;jettySize=auto;html=1;exitX=1;exitY=0.3333333333333333;exitDx=0;exitDy=0;exitPerimeter=0;endArrow=none;startFill=0;entryX=0;entryY=0.5;entryDx=0;entryDy=0;" edge="1" parent="1" target="wfmsOxuhuRaIuoQMw9XY-14" source="wfmsOxuhuRaIuoQMw9XY-1">
          <mxGeometry relative="1" as="geometry">
            <mxPoint x="-1385" y="1441" as="sourcePoint" />
            <mxPoint x="-1357" y="1493.12" as="targetPoint" />
          </mxGeometry>
        </mxCell>
        <mxCell id="wfmsOxuhuRaIuoQMw9XY-16" value="Атентификация" style="ellipse;whiteSpace=wrap;html=1;" vertex="1" parent="1">
          <mxGeometry x="-1147" y="1210" width="120" height="55" as="geometry" />
        </mxCell>
        <mxCell id="wfmsOxuhuRaIuoQMw9XY-17" style="rounded=0;orthogonalLoop=1;jettySize=auto;html=1;exitX=0;exitY=0.3333333333333333;exitDx=0;exitDy=0;exitPerimeter=0;endArrow=none;startFill=0;entryX=1;entryY=1;entryDx=0;entryDy=0;" edge="1" parent="1" target="wfmsOxuhuRaIuoQMw9XY-16" source="wfmsOxuhuRaIuoQMw9XY-2">
          <mxGeometry relative="1" as="geometry">
            <mxPoint x="-929" y="1317" as="sourcePoint" />
            <mxPoint x="-1277" y="1224" as="targetPoint" />
          </mxGeometry>
        </mxCell>
        <mxCell id="wfmsOxuhuRaIuoQMw9XY-19" style="rounded=0;orthogonalLoop=1;jettySize=auto;html=1;exitX=1;exitY=0.3333333333333333;exitDx=0;exitDy=0;exitPerimeter=0;endArrow=none;startFill=0;entryX=0;entryY=1;entryDx=0;entryDy=0;" edge="1" parent="1" source="wfmsOxuhuRaIuoQMw9XY-1" target="wfmsOxuhuRaIuoQMw9XY-16">
          <mxGeometry relative="1" as="geometry">
            <mxPoint x="-1381" y="1383" as="sourcePoint" />
            <mxPoint x="-1271" y="1418" as="targetPoint" />
          </mxGeometry>
        </mxCell>
        <mxCell id="wfmsOxuhuRaIuoQMw9XY-20" value="Поиск мастера" style="ellipse;whiteSpace=wrap;html=1;" vertex="1" parent="1">
          <mxGeometry x="-1147" y="1403" width="120" height="55" as="geometry" />
        </mxCell>
        <mxCell id="wfmsOxuhuRaIuoQMw9XY-22" value="Просмотр информации о мастере" style="ellipse;whiteSpace=wrap;html=1;" vertex="1" parent="1">
          <mxGeometry x="-1249" y="1540" width="120" height="55" as="geometry" />
        </mxCell>
        <mxCell id="wfmsOxuhuRaIuoQMw9XY-24" value="Просмотр постов мастера" style="ellipse;whiteSpace=wrap;html=1;" vertex="1" parent="1">
          <mxGeometry x="-870" y="1449" width="120" height="55" as="geometry" />
        </mxCell>
        <mxCell id="wfmsOxuhuRaIuoQMw9XY-26" value="Отмена резервирования" style="ellipse;whiteSpace=wrap;html=1;" vertex="1" parent="1">
          <mxGeometry x="-851" y="1384" width="120" height="55" as="geometry" />
        </mxCell>
        <mxCell id="wfmsOxuhuRaIuoQMw9XY-27" style="rounded=0;orthogonalLoop=1;jettySize=auto;html=1;endArrow=none;startFill=0;entryX=1;entryY=0.3333333333333333;entryDx=0;entryDy=0;exitX=0;exitY=0.5;exitDx=0;exitDy=0;entryPerimeter=0;" edge="1" parent="1" target="wfmsOxuhuRaIuoQMw9XY-2" source="wfmsOxuhuRaIuoQMw9XY-26">
          <mxGeometry relative="1" as="geometry">
            <mxPoint x="-560" y="1695" as="sourcePoint" />
            <mxPoint x="-889" y="1894.12" as="targetPoint" />
          </mxGeometry>
        </mxCell>
        <mxCell id="wfmsOxuhuRaIuoQMw9XY-28" value="Регистрация" style="ellipse;whiteSpace=wrap;html=1;" vertex="1" parent="1">
          <mxGeometry x="-810.5" y="1151" width="120" height="55" as="geometry" />
        </mxCell>
        <mxCell id="wfmsOxuhuRaIuoQMw9XY-29" style="rounded=0;orthogonalLoop=1;jettySize=auto;html=1;endArrow=none;startFill=0;entryX=0;entryY=1;entryDx=0;entryDy=0;exitX=1;exitY=0.3333333333333333;exitDx=0;exitDy=0;exitPerimeter=0;" edge="1" parent="1" target="wfmsOxuhuRaIuoQMw9XY-28" source="wfmsOxuhuRaIuoQMw9XY-2">
          <mxGeometry relative="1" as="geometry">
            <mxPoint x="-1093" y="1406" as="sourcePoint" />
            <mxPoint x="-945.5" y="1400.56" as="targetPoint" />
          </mxGeometry>
        </mxCell>
        <mxCell id="wfmsOxuhuRaIuoQMw9XY-30" value="Просмотр предстоящих резервирований" style="ellipse;whiteSpace=wrap;html=1;" vertex="1" parent="1">
          <mxGeometry x="-807.5" y="1217" width="120" height="55" as="geometry" />
        </mxCell>
        <mxCell id="wfmsOxuhuRaIuoQMw9XY-33" value="Подписка на мастера" style="ellipse;whiteSpace=wrap;html=1;" vertex="1" parent="1">
          <mxGeometry x="-1139" y="1589" width="120" height="55" as="geometry" />
        </mxCell>
        <mxCell id="wfmsOxuhuRaIuoQMw9XY-35" value="Отписка от мастера" style="ellipse;whiteSpace=wrap;html=1;" vertex="1" parent="1">
          <mxGeometry x="-1003" y="1595" width="120" height="55" as="geometry" />
        </mxCell>
        <mxCell id="wfmsOxuhuRaIuoQMw9XY-37" style="rounded=0;orthogonalLoop=1;jettySize=auto;html=1;exitX=0;exitY=0.3333333333333333;exitDx=0;exitDy=0;exitPerimeter=0;entryX=1;entryY=0.5;entryDx=0;entryDy=0;endArrow=none;startFill=0;" edge="1" parent="1" target="wfmsOxuhuRaIuoQMw9XY-38" source="wfmsOxuhuRaIuoQMw9XY-2">
          <mxGeometry relative="1" as="geometry">
            <mxPoint x="-1309" y="1616" as="sourcePoint" />
          </mxGeometry>
        </mxCell>
        <mxCell id="wfmsOxuhuRaIuoQMw9XY-38" value="Настройка личного аккаунта" style="ellipse;whiteSpace=wrap;html=1;" vertex="1" parent="1">
          <mxGeometry x="-1151" y="1305" width="120" height="55" as="geometry" />
        </mxCell>
        <mxCell id="wfmsOxuhuRaIuoQMw9XY-39" style="rounded=0;orthogonalLoop=1;jettySize=auto;html=1;exitX=1;exitY=0.3333333333333333;exitDx=0;exitDy=0;exitPerimeter=0;entryX=0;entryY=0.5;entryDx=0;entryDy=0;endArrow=none;startFill=0;" edge="1" parent="1" target="wfmsOxuhuRaIuoQMw9XY-40" source="wfmsOxuhuRaIuoQMw9XY-2">
          <mxGeometry relative="1" as="geometry">
            <mxPoint x="-916.9999999999998" y="1363" as="sourcePoint" />
          </mxGeometry>
        </mxCell>
        <mxCell id="wfmsOxuhuRaIuoQMw9XY-40" value="Просмотр истории резервирований" style="ellipse;whiteSpace=wrap;html=1;" vertex="1" parent="1">
          <mxGeometry x="-807.5" y="1281" width="120" height="55" as="geometry" />
        </mxCell>
        <mxCell id="wfmsOxuhuRaIuoQMw9XY-41" value="Extend" style="endArrow=open;endSize=12;dashed=1;html=1;rounded=0;exitX=0;exitY=0.3333333333333333;exitDx=0;exitDy=0;exitPerimeter=0;entryX=1;entryY=0.3333333333333333;entryDx=0;entryDy=0;entryPerimeter=0;" edge="1" parent="1" source="wfmsOxuhuRaIuoQMw9XY-3" target="wfmsOxuhuRaIuoQMw9XY-2">
          <mxGeometry width="160" relative="1" as="geometry">
            <mxPoint x="-590" y="1365.5" as="sourcePoint" />
            <mxPoint x="-889" y="1362" as="targetPoint" />
          </mxGeometry>
        </mxCell>
        <mxCell id="wfmsOxuhuRaIuoQMw9XY-45" value="Управление постом" style="ellipse;whiteSpace=wrap;html=1;" vertex="1" parent="1">
          <mxGeometry x="-496" y="1195" width="120" height="55" as="geometry" />
        </mxCell>
        <mxCell id="wfmsOxuhuRaIuoQMw9XY-46" style="rounded=0;orthogonalLoop=1;jettySize=auto;html=1;endArrow=none;startFill=0;entryX=0;entryY=1;entryDx=0;entryDy=0;exitX=1;exitY=0.3333333333333333;exitDx=0;exitDy=0;exitPerimeter=0;" edge="1" parent="1" target="wfmsOxuhuRaIuoQMw9XY-45" source="wfmsOxuhuRaIuoQMw9XY-3">
          <mxGeometry relative="1" as="geometry">
            <mxPoint x="-459" y="1385" as="sourcePoint" />
            <mxPoint x="-593" y="1450.56" as="targetPoint" />
          </mxGeometry>
        </mxCell>
        <mxCell id="wfmsOxuhuRaIuoQMw9XY-49" value="Extend" style="endArrow=open;endSize=12;dashed=1;html=1;rounded=0;exitX=1;exitY=0.5;exitDx=0;exitDy=0;entryX=0.5;entryY=0;entryDx=0;entryDy=0;" edge="1" parent="1" source="wfmsOxuhuRaIuoQMw9XY-50" target="wfmsOxuhuRaIuoQMw9XY-45">
          <mxGeometry width="160" relative="1" as="geometry">
            <mxPoint x="-509.9999999999998" y="1126" as="sourcePoint" />
            <mxPoint x="-448" y="1195" as="targetPoint" />
          </mxGeometry>
        </mxCell>
        <mxCell id="wfmsOxuhuRaIuoQMw9XY-50" value="Добавление поста" style="ellipse;whiteSpace=wrap;html=1;" vertex="1" parent="1">
          <mxGeometry x="-632" y="1130" width="120" height="55" as="geometry" />
        </mxCell>
        <mxCell id="wfmsOxuhuRaIuoQMw9XY-51" value="Extend" style="endArrow=open;endSize=12;dashed=1;html=1;rounded=0;exitX=0.5;exitY=1;exitDx=0;exitDy=0;entryX=0.5;entryY=0;entryDx=0;entryDy=0;" edge="1" parent="1" source="wfmsOxuhuRaIuoQMw9XY-52" target="wfmsOxuhuRaIuoQMw9XY-45">
          <mxGeometry width="160" relative="1" as="geometry">
            <mxPoint x="-349.9999999999998" y="1106.41" as="sourcePoint" />
            <mxPoint x="-288" y="1175.41" as="targetPoint" />
          </mxGeometry>
        </mxCell>
        <mxCell id="wfmsOxuhuRaIuoQMw9XY-52" value="Редактирование поста" style="ellipse;whiteSpace=wrap;html=1;" vertex="1" parent="1">
          <mxGeometry x="-472" y="1110.41" width="120" height="55" as="geometry" />
        </mxCell>
        <mxCell id="wfmsOxuhuRaIuoQMw9XY-53" value="Extend" style="endArrow=open;endSize=12;dashed=1;html=1;rounded=0;exitX=0.5;exitY=1;exitDx=0;exitDy=0;entryX=1;entryY=0.5;entryDx=0;entryDy=0;" edge="1" parent="1" source="wfmsOxuhuRaIuoQMw9XY-54" target="wfmsOxuhuRaIuoQMw9XY-45">
          <mxGeometry width="160" relative="1" as="geometry">
            <mxPoint x="-224.99999999999977" y="1137" as="sourcePoint" />
            <mxPoint x="-311" y="1225.59" as="targetPoint" />
          </mxGeometry>
        </mxCell>
        <mxCell id="wfmsOxuhuRaIuoQMw9XY-54" value="Удаление поста" style="ellipse;whiteSpace=wrap;html=1;" vertex="1" parent="1">
          <mxGeometry x="-347" y="1141" width="120" height="55" as="geometry" />
        </mxCell>
        <mxCell id="wfmsOxuhuRaIuoQMw9XY-55" value="Управление временными слотами" style="ellipse;whiteSpace=wrap;html=1;" vertex="1" parent="1">
          <mxGeometry x="-487" y="1384" width="120" height="55" as="geometry" />
        </mxCell>
        <mxCell id="wfmsOxuhuRaIuoQMw9XY-56" style="rounded=0;orthogonalLoop=1;jettySize=auto;html=1;endArrow=none;startFill=0;entryX=0;entryY=0.5;entryDx=0;entryDy=0;exitX=1;exitY=0.3333333333333333;exitDx=0;exitDy=0;exitPerimeter=0;" edge="1" parent="1" target="wfmsOxuhuRaIuoQMw9XY-55" source="wfmsOxuhuRaIuoQMw9XY-3">
          <mxGeometry relative="1" as="geometry">
            <mxPoint x="-400" y="1512.3" as="sourcePoint" />
            <mxPoint x="-409" y="1599.86" as="targetPoint" />
          </mxGeometry>
        </mxCell>
        <mxCell id="wfmsOxuhuRaIuoQMw9XY-57" value="Extend" style="endArrow=open;endSize=12;dashed=1;html=1;rounded=0;exitX=0.5;exitY=1;exitDx=0;exitDy=0;entryX=0.5;entryY=0;entryDx=0;entryDy=0;" edge="1" parent="1" source="wfmsOxuhuRaIuoQMw9XY-58" target="wfmsOxuhuRaIuoQMw9XY-55">
          <mxGeometry width="160" relative="1" as="geometry">
            <mxPoint x="-325.9999999999998" y="1275.3" as="sourcePoint" />
            <mxPoint x="-264" y="1344.3" as="targetPoint" />
          </mxGeometry>
        </mxCell>
        <mxCell id="wfmsOxuhuRaIuoQMw9XY-58" value="Добавление временных слотов" style="ellipse;whiteSpace=wrap;html=1;" vertex="1" parent="1">
          <mxGeometry x="-448" y="1279.3" width="120" height="55" as="geometry" />
        </mxCell>
        <mxCell id="wfmsOxuhuRaIuoQMw9XY-59" value="Extend" style="endArrow=open;endSize=12;dashed=1;html=1;rounded=0;exitX=0;exitY=0.5;exitDx=0;exitDy=0;entryX=0.5;entryY=0;entryDx=0;entryDy=0;" edge="1" parent="1" source="wfmsOxuhuRaIuoQMw9XY-60" target="wfmsOxuhuRaIuoQMw9XY-55">
          <mxGeometry width="160" relative="1" as="geometry">
            <mxPoint x="-165.99999999999977" y="1255.71" as="sourcePoint" />
            <mxPoint x="-104" y="1324.71" as="targetPoint" />
          </mxGeometry>
        </mxCell>
        <mxCell id="wfmsOxuhuRaIuoQMw9XY-60" value="Редактирование временных слотов" style="ellipse;whiteSpace=wrap;html=1;" vertex="1" parent="1">
          <mxGeometry x="-328" y="1325" width="120" height="55" as="geometry" />
        </mxCell>
        <mxCell id="wfmsOxuhuRaIuoQMw9XY-61" value="Extend" style="endArrow=open;endSize=12;dashed=1;html=1;rounded=0;exitX=0;exitY=0.5;exitDx=0;exitDy=0;entryX=1;entryY=0.5;entryDx=0;entryDy=0;" edge="1" parent="1" source="wfmsOxuhuRaIuoQMw9XY-62" target="wfmsOxuhuRaIuoQMw9XY-55">
          <mxGeometry width="160" relative="1" as="geometry">
            <mxPoint x="-40.99999999999977" y="1286.3" as="sourcePoint" />
            <mxPoint x="-127" y="1374.8899999999999" as="targetPoint" />
          </mxGeometry>
        </mxCell>
        <mxCell id="wfmsOxuhuRaIuoQMw9XY-62" value="Удаление временных слотов" style="ellipse;whiteSpace=wrap;html=1;" vertex="1" parent="1">
          <mxGeometry x="-303" y="1391" width="120" height="55" as="geometry" />
        </mxCell>
        <mxCell id="wfmsOxuhuRaIuoQMw9XY-63" value="Отмена записи" style="ellipse;whiteSpace=wrap;html=1;" vertex="1" parent="1">
          <mxGeometry x="-509" y="1462" width="120" height="55" as="geometry" />
        </mxCell>
        <mxCell id="wfmsOxuhuRaIuoQMw9XY-64" style="rounded=0;orthogonalLoop=1;jettySize=auto;html=1;endArrow=none;startFill=0;entryX=0;entryY=0.5;entryDx=0;entryDy=0;exitX=1;exitY=0.3333333333333333;exitDx=0;exitDy=0;exitPerimeter=0;" edge="1" parent="1" target="wfmsOxuhuRaIuoQMw9XY-63" source="wfmsOxuhuRaIuoQMw9XY-3">
          <mxGeometry relative="1" as="geometry">
            <mxPoint x="-593" y="1444" as="sourcePoint" />
            <mxPoint x="-418" y="1680.86" as="targetPoint" />
          </mxGeometry>
        </mxCell>
        <mxCell id="wfmsOxuhuRaIuoQMw9XY-65" value="Взаимодействие с мастерами" style="ellipse;whiteSpace=wrap;html=1;" vertex="1" parent="1">
          <mxGeometry x="-1090" y="1492" width="120" height="55" as="geometry" />
        </mxCell>
        <mxCell id="wfmsOxuhuRaIuoQMw9XY-66" style="rounded=0;orthogonalLoop=1;jettySize=auto;html=1;exitX=0;exitY=0.3333333333333333;exitDx=0;exitDy=0;exitPerimeter=0;endArrow=none;startFill=0;entryX=0.5;entryY=0;entryDx=0;entryDy=0;" edge="1" parent="1" target="wfmsOxuhuRaIuoQMw9XY-65" source="wfmsOxuhuRaIuoQMw9XY-2">
          <mxGeometry relative="1" as="geometry">
            <mxPoint x="-910" y="1516" as="sourcePoint" />
            <mxPoint x="-1226" y="1504" as="targetPoint" />
          </mxGeometry>
        </mxCell>
        <mxCell id="wfmsOxuhuRaIuoQMw9XY-67" value="Extend" style="endArrow=open;endSize=12;dashed=1;html=1;rounded=0;exitX=0.5;exitY=1;exitDx=0;exitDy=0;" edge="1" parent="1" source="wfmsOxuhuRaIuoQMw9XY-20" target="wfmsOxuhuRaIuoQMw9XY-65">
          <mxGeometry width="160" relative="1" as="geometry">
            <mxPoint x="-976" y="1511" as="sourcePoint" />
            <mxPoint x="-900" y="1548" as="targetPoint" />
          </mxGeometry>
        </mxCell>
        <mxCell id="wfmsOxuhuRaIuoQMw9XY-68" value="Extend" style="endArrow=open;endSize=12;dashed=1;html=1;rounded=0;exitX=0.5;exitY=0;exitDx=0;exitDy=0;entryX=0.5;entryY=1;entryDx=0;entryDy=0;" edge="1" parent="1" source="wfmsOxuhuRaIuoQMw9XY-33" target="wfmsOxuhuRaIuoQMw9XY-65">
          <mxGeometry width="160" relative="1" as="geometry">
            <mxPoint x="-1054" y="1401" as="sourcePoint" />
            <mxPoint x="-985" y="1501" as="targetPoint" />
          </mxGeometry>
        </mxCell>
        <mxCell id="wfmsOxuhuRaIuoQMw9XY-69" value="Extend" style="endArrow=open;endSize=12;dashed=1;html=1;rounded=0;exitX=0.5;exitY=0;exitDx=0;exitDy=0;entryX=1;entryY=1;entryDx=0;entryDy=0;" edge="1" parent="1" source="wfmsOxuhuRaIuoQMw9XY-35" target="wfmsOxuhuRaIuoQMw9XY-65">
          <mxGeometry width="160" relative="1" as="geometry">
            <mxPoint x="-1077" y="1525" as="sourcePoint" />
            <mxPoint x="-981" y="1491" as="targetPoint" />
          </mxGeometry>
        </mxCell>
        <mxCell id="wfmsOxuhuRaIuoQMw9XY-70" value="Extend" style="endArrow=open;endSize=12;dashed=1;html=1;rounded=0;exitX=1;exitY=0.5;exitDx=0;exitDy=0;entryX=0;entryY=1;entryDx=0;entryDy=0;" edge="1" parent="1" source="wfmsOxuhuRaIuoQMw9XY-22" target="wfmsOxuhuRaIuoQMw9XY-65">
          <mxGeometry width="160" relative="1" as="geometry">
            <mxPoint x="-992" y="1543" as="sourcePoint" />
            <mxPoint x="-981" y="1491" as="targetPoint" />
          </mxGeometry>
        </mxCell>
        <mxCell id="wfmsOxuhuRaIuoQMw9XY-71" value="Просмотр свободных временных&amp;nbsp;&lt;span style=&quot;background-color: transparent; color: light-dark(rgb(0, 0, 0), rgb(255, 255, 255));&quot;&gt;слотов&lt;/span&gt;" style="ellipse;whiteSpace=wrap;html=1;" vertex="1" parent="1">
          <mxGeometry x="-873.5" y="1580" width="127" height="59" as="geometry" />
        </mxCell>
        <mxCell id="wfmsOxuhuRaIuoQMw9XY-72" value="Extend" style="endArrow=open;endSize=12;dashed=1;html=1;rounded=0;exitX=0;exitY=0;exitDx=0;exitDy=0;entryX=1;entryY=0.5;entryDx=0;entryDy=0;" edge="1" parent="1" source="wfmsOxuhuRaIuoQMw9XY-71" target="wfmsOxuhuRaIuoQMw9XY-65">
          <mxGeometry width="160" relative="1" as="geometry">
            <mxPoint x="-961" y="1482" as="sourcePoint" />
            <mxPoint x="-862" y="1474" as="targetPoint" />
          </mxGeometry>
        </mxCell>
        <mxCell id="wfmsOxuhuRaIuoQMw9XY-73" value="Extend" style="endArrow=open;endSize=12;dashed=1;html=1;rounded=0;exitX=0;exitY=0.5;exitDx=0;exitDy=0;entryX=1;entryY=0.5;entryDx=0;entryDy=0;" edge="1" parent="1" source="wfmsOxuhuRaIuoQMw9XY-24" target="wfmsOxuhuRaIuoQMw9XY-65">
          <mxGeometry width="160" relative="1" as="geometry">
            <mxPoint x="-828" y="1567" as="sourcePoint" />
            <mxPoint x="-951" y="1508" as="targetPoint" />
          </mxGeometry>
        </mxCell>
        <mxCell id="wfmsOxuhuRaIuoQMw9XY-74" value="Резервирование свободного слота" style="ellipse;whiteSpace=wrap;html=1;" vertex="1" parent="1">
          <mxGeometry x="-865" y="1510" width="127" height="59" as="geometry" />
        </mxCell>
        <mxCell id="wfmsOxuhuRaIuoQMw9XY-75" value="Extend" style="endArrow=open;endSize=12;dashed=1;html=1;rounded=0;exitX=0;exitY=0.5;exitDx=0;exitDy=0;entryX=1;entryY=0.5;entryDx=0;entryDy=0;" edge="1" parent="1" source="wfmsOxuhuRaIuoQMw9XY-74" target="wfmsOxuhuRaIuoQMw9XY-65">
          <mxGeometry width="160" relative="1" as="geometry">
            <mxPoint x="-949" y="1420" as="sourcePoint" />
            <mxPoint x="-958" y="1458" as="targetPoint" />
          </mxGeometry>
        </mxCell>
        <mxCell id="wfmsOxuhuRaIuoQMw9XY-95" value="USER" style="shape=table;startSize=30;container=1;collapsible=1;childLayout=tableLayout;fixedRows=1;rowLines=0;fontStyle=1;align=center;resizeLast=1;html=1;" vertex="1" parent="1">
          <mxGeometry x="-1113" y="2407.71" width="180" height="330.4117395737594" as="geometry">
            <mxRectangle x="-1113" y="2407.71" width="76" height="30" as="alternateBounds" />
          </mxGeometry>
        </mxCell>
        <mxCell id="wfmsOxuhuRaIuoQMw9XY-96" value="" style="shape=tableRow;horizontal=0;startSize=0;swimlaneHead=0;swimlaneBody=0;fillColor=none;collapsible=0;dropTarget=0;points=[[0,0.5],[1,0.5]];portConstraint=eastwest;top=0;left=0;right=0;bottom=1;" vertex="1" parent="wfmsOxuhuRaIuoQMw9XY-95">
          <mxGeometry y="30" width="180" height="30" as="geometry" />
        </mxCell>
        <mxCell id="wfmsOxuhuRaIuoQMw9XY-97" value="PK" style="shape=partialRectangle;connectable=0;fillColor=none;top=0;left=0;bottom=0;right=0;fontStyle=1;overflow=hidden;whiteSpace=wrap;html=1;" vertex="1" parent="wfmsOxuhuRaIuoQMw9XY-96">
          <mxGeometry width="30" height="30" as="geometry">
            <mxRectangle width="30" height="30" as="alternateBounds" />
          </mxGeometry>
        </mxCell>
        <mxCell id="wfmsOxuhuRaIuoQMw9XY-98" value="ID" style="shape=partialRectangle;connectable=0;fillColor=none;top=0;left=0;bottom=0;right=0;align=left;spacingLeft=6;fontStyle=5;overflow=hidden;whiteSpace=wrap;html=1;" vertex="1" parent="wfmsOxuhuRaIuoQMw9XY-96">
          <mxGeometry x="30" width="150" height="30" as="geometry">
            <mxRectangle width="150" height="30" as="alternateBounds" />
          </mxGeometry>
        </mxCell>
        <mxCell id="wfmsOxuhuRaIuoQMw9XY-99" value="" style="shape=tableRow;horizontal=0;startSize=0;swimlaneHead=0;swimlaneBody=0;fillColor=none;collapsible=0;dropTarget=0;points=[[0,0.5],[1,0.5]];portConstraint=eastwest;top=0;left=0;right=0;bottom=0;" vertex="1" parent="wfmsOxuhuRaIuoQMw9XY-95">
          <mxGeometry y="60" width="180" height="30" as="geometry" />
        </mxCell>
        <mxCell id="wfmsOxuhuRaIuoQMw9XY-100" value="FK" style="shape=partialRectangle;connectable=0;fillColor=none;top=0;left=0;bottom=0;right=0;editable=1;overflow=hidden;whiteSpace=wrap;html=1;" vertex="1" parent="wfmsOxuhuRaIuoQMw9XY-99">
          <mxGeometry width="30" height="30" as="geometry">
            <mxRectangle width="30" height="30" as="alternateBounds" />
          </mxGeometry>
        </mxCell>
        <mxCell id="wfmsOxuhuRaIuoQMw9XY-101" value="CREDENTIAL_ID" style="shape=partialRectangle;connectable=0;fillColor=none;top=0;left=0;bottom=0;right=0;align=left;spacingLeft=6;overflow=hidden;whiteSpace=wrap;html=1;" vertex="1" parent="wfmsOxuhuRaIuoQMw9XY-99">
          <mxGeometry x="30" width="150" height="30" as="geometry">
            <mxRectangle width="150" height="30" as="alternateBounds" />
          </mxGeometry>
        </mxCell>
        <mxCell id="wfmsOxuhuRaIuoQMw9XY-102" value="" style="shape=tableRow;horizontal=0;startSize=0;swimlaneHead=0;swimlaneBody=0;fillColor=none;collapsible=0;dropTarget=0;points=[[0,0.5],[1,0.5]];portConstraint=eastwest;top=0;left=0;right=0;bottom=0;" vertex="1" parent="wfmsOxuhuRaIuoQMw9XY-95">
          <mxGeometry y="90" width="180" height="30" as="geometry" />
        </mxCell>
        <mxCell id="wfmsOxuhuRaIuoQMw9XY-103" value="" style="shape=partialRectangle;connectable=0;fillColor=none;top=0;left=0;bottom=0;right=0;editable=1;overflow=hidden;whiteSpace=wrap;html=1;" vertex="1" parent="wfmsOxuhuRaIuoQMw9XY-102">
          <mxGeometry width="30" height="30" as="geometry">
            <mxRectangle width="30" height="30" as="alternateBounds" />
          </mxGeometry>
        </mxCell>
        <mxCell id="wfmsOxuhuRaIuoQMw9XY-104" value="USERNAME" style="shape=partialRectangle;connectable=0;fillColor=none;top=0;left=0;bottom=0;right=0;align=left;spacingLeft=6;overflow=hidden;whiteSpace=wrap;html=1;" vertex="1" parent="wfmsOxuhuRaIuoQMw9XY-102">
          <mxGeometry x="30" width="150" height="30" as="geometry">
            <mxRectangle width="150" height="30" as="alternateBounds" />
          </mxGeometry>
        </mxCell>
        <mxCell id="wfmsOxuhuRaIuoQMw9XY-105" value="" style="shape=tableRow;horizontal=0;startSize=0;swimlaneHead=0;swimlaneBody=0;fillColor=none;collapsible=0;dropTarget=0;points=[[0,0.5],[1,0.5]];portConstraint=eastwest;top=0;left=0;right=0;bottom=0;" vertex="1" parent="wfmsOxuhuRaIuoQMw9XY-95">
          <mxGeometry y="120" width="180" height="30" as="geometry" />
        </mxCell>
        <mxCell id="wfmsOxuhuRaIuoQMw9XY-106" value="" style="shape=partialRectangle;connectable=0;fillColor=none;top=0;left=0;bottom=0;right=0;editable=1;overflow=hidden;whiteSpace=wrap;html=1;" vertex="1" parent="wfmsOxuhuRaIuoQMw9XY-105">
          <mxGeometry width="30" height="30" as="geometry">
            <mxRectangle width="30" height="30" as="alternateBounds" />
          </mxGeometry>
        </mxCell>
        <mxCell id="wfmsOxuhuRaIuoQMw9XY-107" value="FIRST_NAME" style="shape=partialRectangle;connectable=0;fillColor=none;top=0;left=0;bottom=0;right=0;align=left;spacingLeft=6;overflow=hidden;whiteSpace=wrap;html=1;" vertex="1" parent="wfmsOxuhuRaIuoQMw9XY-105">
          <mxGeometry x="30" width="150" height="30" as="geometry">
            <mxRectangle width="150" height="30" as="alternateBounds" />
          </mxGeometry>
        </mxCell>
        <mxCell id="wfmsOxuhuRaIuoQMw9XY-108" value="" style="shape=tableRow;horizontal=0;startSize=0;swimlaneHead=0;swimlaneBody=0;fillColor=none;collapsible=0;dropTarget=0;points=[[0,0.5],[1,0.5]];portConstraint=eastwest;top=0;left=0;right=0;bottom=0;" vertex="1" parent="wfmsOxuhuRaIuoQMw9XY-95">
          <mxGeometry y="150" width="180" height="30" as="geometry" />
        </mxCell>
        <mxCell id="wfmsOxuhuRaIuoQMw9XY-109" value="" style="shape=partialRectangle;connectable=0;fillColor=none;top=0;left=0;bottom=0;right=0;editable=1;overflow=hidden;whiteSpace=wrap;html=1;" vertex="1" parent="wfmsOxuhuRaIuoQMw9XY-108">
          <mxGeometry width="30" height="30" as="geometry">
            <mxRectangle width="30" height="30" as="alternateBounds" />
          </mxGeometry>
        </mxCell>
        <mxCell id="wfmsOxuhuRaIuoQMw9XY-110" value="SECOND_NAME" style="shape=partialRectangle;connectable=0;fillColor=none;top=0;left=0;bottom=0;right=0;align=left;spacingLeft=6;overflow=hidden;whiteSpace=wrap;html=1;" vertex="1" parent="wfmsOxuhuRaIuoQMw9XY-108">
          <mxGeometry x="30" width="150" height="30" as="geometry">
            <mxRectangle width="150" height="30" as="alternateBounds" />
          </mxGeometry>
        </mxCell>
        <mxCell id="wfmsOxuhuRaIuoQMw9XY-111" value="" style="shape=tableRow;horizontal=0;startSize=0;swimlaneHead=0;swimlaneBody=0;fillColor=none;collapsible=0;dropTarget=0;points=[[0,0.5],[1,0.5]];portConstraint=eastwest;top=0;left=0;right=0;bottom=0;" vertex="1" parent="wfmsOxuhuRaIuoQMw9XY-95">
          <mxGeometry y="180" width="180" height="30" as="geometry" />
        </mxCell>
        <mxCell id="wfmsOxuhuRaIuoQMw9XY-112" value="" style="shape=partialRectangle;connectable=0;fillColor=none;top=0;left=0;bottom=0;right=0;editable=1;overflow=hidden;whiteSpace=wrap;html=1;" vertex="1" parent="wfmsOxuhuRaIuoQMw9XY-111">
          <mxGeometry width="30" height="30" as="geometry">
            <mxRectangle width="30" height="30" as="alternateBounds" />
          </mxGeometry>
        </mxCell>
        <mxCell id="wfmsOxuhuRaIuoQMw9XY-113" value="CITY" style="shape=partialRectangle;connectable=0;fillColor=none;top=0;left=0;bottom=0;right=0;align=left;spacingLeft=6;overflow=hidden;whiteSpace=wrap;html=1;" vertex="1" parent="wfmsOxuhuRaIuoQMw9XY-111">
          <mxGeometry x="30" width="150" height="30" as="geometry">
            <mxRectangle width="150" height="30" as="alternateBounds" />
          </mxGeometry>
        </mxCell>
        <mxCell id="wfmsOxuhuRaIuoQMw9XY-184" value="" style="shape=tableRow;horizontal=0;startSize=0;swimlaneHead=0;swimlaneBody=0;fillColor=none;collapsible=0;dropTarget=0;points=[[0,0.5],[1,0.5]];portConstraint=eastwest;top=0;left=0;right=0;bottom=0;" vertex="1" parent="wfmsOxuhuRaIuoQMw9XY-95">
          <mxGeometry y="210" width="180" height="30" as="geometry" />
        </mxCell>
        <mxCell id="wfmsOxuhuRaIuoQMw9XY-185" value="" style="shape=partialRectangle;connectable=0;fillColor=none;top=0;left=0;bottom=0;right=0;editable=1;overflow=hidden;whiteSpace=wrap;html=1;" vertex="1" parent="wfmsOxuhuRaIuoQMw9XY-184">
          <mxGeometry width="30" height="30" as="geometry">
            <mxRectangle width="30" height="30" as="alternateBounds" />
          </mxGeometry>
        </mxCell>
        <mxCell id="wfmsOxuhuRaIuoQMw9XY-186" value="EMAIL" style="shape=partialRectangle;connectable=0;fillColor=none;top=0;left=0;bottom=0;right=0;align=left;spacingLeft=6;overflow=hidden;whiteSpace=wrap;html=1;" vertex="1" parent="wfmsOxuhuRaIuoQMw9XY-184">
          <mxGeometry x="30" width="150" height="30" as="geometry">
            <mxRectangle width="150" height="30" as="alternateBounds" />
          </mxGeometry>
        </mxCell>
        <mxCell id="wfmsOxuhuRaIuoQMw9XY-187" value="" style="shape=tableRow;horizontal=0;startSize=0;swimlaneHead=0;swimlaneBody=0;fillColor=none;collapsible=0;dropTarget=0;points=[[0,0.5],[1,0.5]];portConstraint=eastwest;top=0;left=0;right=0;bottom=0;" vertex="1" parent="wfmsOxuhuRaIuoQMw9XY-95">
          <mxGeometry y="240" width="180" height="30" as="geometry" />
        </mxCell>
        <mxCell id="wfmsOxuhuRaIuoQMw9XY-188" value="" style="shape=partialRectangle;connectable=0;fillColor=none;top=0;left=0;bottom=0;right=0;editable=1;overflow=hidden;whiteSpace=wrap;html=1;" vertex="1" parent="wfmsOxuhuRaIuoQMw9XY-187">
          <mxGeometry width="30" height="30" as="geometry">
            <mxRectangle width="30" height="30" as="alternateBounds" />
          </mxGeometry>
        </mxCell>
        <mxCell id="wfmsOxuhuRaIuoQMw9XY-189" value="TEL" style="shape=partialRectangle;connectable=0;fillColor=none;top=0;left=0;bottom=0;right=0;align=left;spacingLeft=6;overflow=hidden;whiteSpace=wrap;html=1;" vertex="1" parent="wfmsOxuhuRaIuoQMw9XY-187">
          <mxGeometry x="30" width="150" height="30" as="geometry">
            <mxRectangle width="150" height="30" as="alternateBounds" />
          </mxGeometry>
        </mxCell>
        <mxCell id="wfmsOxuhuRaIuoQMw9XY-190" value="" style="shape=tableRow;horizontal=0;startSize=0;swimlaneHead=0;swimlaneBody=0;fillColor=none;collapsible=0;dropTarget=0;points=[[0,0.5],[1,0.5]];portConstraint=eastwest;top=0;left=0;right=0;bottom=0;" vertex="1" parent="wfmsOxuhuRaIuoQMw9XY-95">
          <mxGeometry y="270" width="180" height="30" as="geometry" />
        </mxCell>
        <mxCell id="wfmsOxuhuRaIuoQMw9XY-191" value="" style="shape=partialRectangle;connectable=0;fillColor=none;top=0;left=0;bottom=0;right=0;editable=1;overflow=hidden;whiteSpace=wrap;html=1;" vertex="1" parent="wfmsOxuhuRaIuoQMw9XY-190">
          <mxGeometry width="30" height="30" as="geometry">
            <mxRectangle width="30" height="30" as="alternateBounds" />
          </mxGeometry>
        </mxCell>
        <mxCell id="wfmsOxuhuRaIuoQMw9XY-192" value="ROLE" style="shape=partialRectangle;connectable=0;fillColor=none;top=0;left=0;bottom=0;right=0;align=left;spacingLeft=6;overflow=hidden;whiteSpace=wrap;html=1;" vertex="1" parent="wfmsOxuhuRaIuoQMw9XY-190">
          <mxGeometry x="30" width="150" height="30" as="geometry">
            <mxRectangle width="150" height="30" as="alternateBounds" />
          </mxGeometry>
        </mxCell>
        <mxCell id="wfmsOxuhuRaIuoQMw9XY-114" value="" style="shape=tableRow;horizontal=0;startSize=0;swimlaneHead=0;swimlaneBody=0;fillColor=none;collapsible=0;dropTarget=0;points=[[0,0.5],[1,0.5]];portConstraint=eastwest;top=0;left=0;right=0;bottom=0;" vertex="1" parent="wfmsOxuhuRaIuoQMw9XY-95">
          <mxGeometry y="300" width="180" height="30" as="geometry" />
        </mxCell>
        <mxCell id="wfmsOxuhuRaIuoQMw9XY-115" value="" style="shape=partialRectangle;connectable=0;fillColor=none;top=0;left=0;bottom=0;right=0;editable=1;overflow=hidden;whiteSpace=wrap;html=1;" vertex="1" parent="wfmsOxuhuRaIuoQMw9XY-114">
          <mxGeometry width="30" height="30" as="geometry">
            <mxRectangle width="30" height="30" as="alternateBounds" />
          </mxGeometry>
        </mxCell>
        <mxCell id="wfmsOxuhuRaIuoQMw9XY-116" value="PROFILE_IMAGE" style="shape=partialRectangle;connectable=0;fillColor=none;top=0;left=0;bottom=0;right=0;align=left;spacingLeft=6;overflow=hidden;whiteSpace=wrap;html=1;" vertex="1" parent="wfmsOxuhuRaIuoQMw9XY-114">
          <mxGeometry x="30" width="150" height="30" as="geometry">
            <mxRectangle width="150" height="30" as="alternateBounds" />
          </mxGeometry>
        </mxCell>
        <mxCell id="wfmsOxuhuRaIuoQMw9XY-161" value="POST" style="shape=table;startSize=30;container=1;collapsible=1;childLayout=tableLayout;fixedRows=1;rowLines=0;fontStyle=1;align=center;resizeLast=1;html=1;" vertex="1" parent="1">
          <mxGeometry x="-1197" y="2059" width="180" height="180.4117395737594" as="geometry" />
        </mxCell>
        <mxCell id="wfmsOxuhuRaIuoQMw9XY-162" value="" style="shape=tableRow;horizontal=0;startSize=0;swimlaneHead=0;swimlaneBody=0;fillColor=none;collapsible=0;dropTarget=0;points=[[0,0.5],[1,0.5]];portConstraint=eastwest;top=0;left=0;right=0;bottom=1;" vertex="1" parent="wfmsOxuhuRaIuoQMw9XY-161">
          <mxGeometry y="30" width="180" height="30" as="geometry" />
        </mxCell>
        <mxCell id="wfmsOxuhuRaIuoQMw9XY-163" value="PK" style="shape=partialRectangle;connectable=0;fillColor=none;top=0;left=0;bottom=0;right=0;fontStyle=1;overflow=hidden;whiteSpace=wrap;html=1;" vertex="1" parent="wfmsOxuhuRaIuoQMw9XY-162">
          <mxGeometry width="30" height="30" as="geometry">
            <mxRectangle width="30" height="30" as="alternateBounds" />
          </mxGeometry>
        </mxCell>
        <mxCell id="wfmsOxuhuRaIuoQMw9XY-164" value="ID" style="shape=partialRectangle;connectable=0;fillColor=none;top=0;left=0;bottom=0;right=0;align=left;spacingLeft=6;fontStyle=5;overflow=hidden;whiteSpace=wrap;html=1;" vertex="1" parent="wfmsOxuhuRaIuoQMw9XY-162">
          <mxGeometry x="30" width="150" height="30" as="geometry">
            <mxRectangle width="150" height="30" as="alternateBounds" />
          </mxGeometry>
        </mxCell>
        <mxCell id="wfmsOxuhuRaIuoQMw9XY-165" value="" style="shape=tableRow;horizontal=0;startSize=0;swimlaneHead=0;swimlaneBody=0;fillColor=none;collapsible=0;dropTarget=0;points=[[0,0.5],[1,0.5]];portConstraint=eastwest;top=0;left=0;right=0;bottom=0;" vertex="1" parent="wfmsOxuhuRaIuoQMw9XY-161">
          <mxGeometry y="60" width="180" height="30" as="geometry" />
        </mxCell>
        <mxCell id="wfmsOxuhuRaIuoQMw9XY-166" value="FK" style="shape=partialRectangle;connectable=0;fillColor=none;top=0;left=0;bottom=0;right=0;editable=1;overflow=hidden;whiteSpace=wrap;html=1;" vertex="1" parent="wfmsOxuhuRaIuoQMw9XY-165">
          <mxGeometry width="30" height="30" as="geometry">
            <mxRectangle width="30" height="30" as="alternateBounds" />
          </mxGeometry>
        </mxCell>
        <mxCell id="wfmsOxuhuRaIuoQMw9XY-167" value="MASTER_INFO_ID" style="shape=partialRectangle;connectable=0;fillColor=none;top=0;left=0;bottom=0;right=0;align=left;spacingLeft=6;overflow=hidden;whiteSpace=wrap;html=1;" vertex="1" parent="wfmsOxuhuRaIuoQMw9XY-165">
          <mxGeometry x="30" width="150" height="30" as="geometry">
            <mxRectangle width="150" height="30" as="alternateBounds" />
          </mxGeometry>
        </mxCell>
        <mxCell id="wfmsOxuhuRaIuoQMw9XY-168" value="" style="shape=tableRow;horizontal=0;startSize=0;swimlaneHead=0;swimlaneBody=0;fillColor=none;collapsible=0;dropTarget=0;points=[[0,0.5],[1,0.5]];portConstraint=eastwest;top=0;left=0;right=0;bottom=0;" vertex="1" parent="wfmsOxuhuRaIuoQMw9XY-161">
          <mxGeometry y="90" width="180" height="30" as="geometry" />
        </mxCell>
        <mxCell id="wfmsOxuhuRaIuoQMw9XY-169" value="" style="shape=partialRectangle;connectable=0;fillColor=none;top=0;left=0;bottom=0;right=0;editable=1;overflow=hidden;whiteSpace=wrap;html=1;" vertex="1" parent="wfmsOxuhuRaIuoQMw9XY-168">
          <mxGeometry width="30" height="30" as="geometry">
            <mxRectangle width="30" height="30" as="alternateBounds" />
          </mxGeometry>
        </mxCell>
        <mxCell id="wfmsOxuhuRaIuoQMw9XY-170" value="CREATION_DATE" style="shape=partialRectangle;connectable=0;fillColor=none;top=0;left=0;bottom=0;right=0;align=left;spacingLeft=6;overflow=hidden;whiteSpace=wrap;html=1;" vertex="1" parent="wfmsOxuhuRaIuoQMw9XY-168">
          <mxGeometry x="30" width="150" height="30" as="geometry">
            <mxRectangle width="150" height="30" as="alternateBounds" />
          </mxGeometry>
        </mxCell>
        <mxCell id="wfmsOxuhuRaIuoQMw9XY-171" value="" style="shape=tableRow;horizontal=0;startSize=0;swimlaneHead=0;swimlaneBody=0;fillColor=none;collapsible=0;dropTarget=0;points=[[0,0.5],[1,0.5]];portConstraint=eastwest;top=0;left=0;right=0;bottom=0;" vertex="1" parent="wfmsOxuhuRaIuoQMw9XY-161">
          <mxGeometry y="120" width="180" height="30" as="geometry" />
        </mxCell>
        <mxCell id="wfmsOxuhuRaIuoQMw9XY-172" value="" style="shape=partialRectangle;connectable=0;fillColor=none;top=0;left=0;bottom=0;right=0;editable=1;overflow=hidden;whiteSpace=wrap;html=1;" vertex="1" parent="wfmsOxuhuRaIuoQMw9XY-171">
          <mxGeometry width="30" height="30" as="geometry">
            <mxRectangle width="30" height="30" as="alternateBounds" />
          </mxGeometry>
        </mxCell>
        <mxCell id="wfmsOxuhuRaIuoQMw9XY-173" value="POST_IMAGE" style="shape=partialRectangle;connectable=0;fillColor=none;top=0;left=0;bottom=0;right=0;align=left;spacingLeft=6;overflow=hidden;whiteSpace=wrap;html=1;" vertex="1" parent="wfmsOxuhuRaIuoQMw9XY-171">
          <mxGeometry x="30" width="150" height="30" as="geometry">
            <mxRectangle width="150" height="30" as="alternateBounds" />
          </mxGeometry>
        </mxCell>
        <mxCell id="wfmsOxuhuRaIuoQMw9XY-174" value="" style="shape=tableRow;horizontal=0;startSize=0;swimlaneHead=0;swimlaneBody=0;fillColor=none;collapsible=0;dropTarget=0;points=[[0,0.5],[1,0.5]];portConstraint=eastwest;top=0;left=0;right=0;bottom=0;" vertex="1" parent="wfmsOxuhuRaIuoQMw9XY-161">
          <mxGeometry y="150" width="180" height="30" as="geometry" />
        </mxCell>
        <mxCell id="wfmsOxuhuRaIuoQMw9XY-175" value="" style="shape=partialRectangle;connectable=0;fillColor=none;top=0;left=0;bottom=0;right=0;editable=1;overflow=hidden;whiteSpace=wrap;html=1;" vertex="1" parent="wfmsOxuhuRaIuoQMw9XY-174">
          <mxGeometry width="30" height="30" as="geometry">
            <mxRectangle width="30" height="30" as="alternateBounds" />
          </mxGeometry>
        </mxCell>
        <mxCell id="wfmsOxuhuRaIuoQMw9XY-176" value="DESCRIPTION" style="shape=partialRectangle;connectable=0;fillColor=none;top=0;left=0;bottom=0;right=0;align=left;spacingLeft=6;overflow=hidden;whiteSpace=wrap;html=1;" vertex="1" parent="wfmsOxuhuRaIuoQMw9XY-174">
          <mxGeometry x="30" width="150" height="30" as="geometry">
            <mxRectangle width="150" height="30" as="alternateBounds" />
          </mxGeometry>
        </mxCell>
        <mxCell id="wfmsOxuhuRaIuoQMw9XY-196" value="CREDENTIAL" style="shape=table;startSize=30;container=1;collapsible=1;childLayout=tableLayout;fixedRows=1;rowLines=0;fontStyle=1;align=center;resizeLast=1;html=1;" vertex="1" parent="1">
          <mxGeometry x="-1377" y="2589" width="180" height="120.4117395737594" as="geometry" />
        </mxCell>
        <mxCell id="wfmsOxuhuRaIuoQMw9XY-197" value="" style="shape=tableRow;horizontal=0;startSize=0;swimlaneHead=0;swimlaneBody=0;fillColor=none;collapsible=0;dropTarget=0;points=[[0,0.5],[1,0.5]];portConstraint=eastwest;top=0;left=0;right=0;bottom=1;" vertex="1" parent="wfmsOxuhuRaIuoQMw9XY-196">
          <mxGeometry y="30" width="180" height="30" as="geometry" />
        </mxCell>
        <mxCell id="wfmsOxuhuRaIuoQMw9XY-198" value="PK" style="shape=partialRectangle;connectable=0;fillColor=none;top=0;left=0;bottom=0;right=0;fontStyle=1;overflow=hidden;whiteSpace=wrap;html=1;" vertex="1" parent="wfmsOxuhuRaIuoQMw9XY-197">
          <mxGeometry width="30" height="30" as="geometry">
            <mxRectangle width="30" height="30" as="alternateBounds" />
          </mxGeometry>
        </mxCell>
        <mxCell id="wfmsOxuhuRaIuoQMw9XY-199" value="ID" style="shape=partialRectangle;connectable=0;fillColor=none;top=0;left=0;bottom=0;right=0;align=left;spacingLeft=6;fontStyle=5;overflow=hidden;whiteSpace=wrap;html=1;" vertex="1" parent="wfmsOxuhuRaIuoQMw9XY-197">
          <mxGeometry x="30" width="150" height="30" as="geometry">
            <mxRectangle width="150" height="30" as="alternateBounds" />
          </mxGeometry>
        </mxCell>
        <mxCell id="wfmsOxuhuRaIuoQMw9XY-200" value="" style="shape=tableRow;horizontal=0;startSize=0;swimlaneHead=0;swimlaneBody=0;fillColor=none;collapsible=0;dropTarget=0;points=[[0,0.5],[1,0.5]];portConstraint=eastwest;top=0;left=0;right=0;bottom=0;" vertex="1" parent="wfmsOxuhuRaIuoQMw9XY-196">
          <mxGeometry y="60" width="180" height="30" as="geometry" />
        </mxCell>
        <mxCell id="wfmsOxuhuRaIuoQMw9XY-201" value="" style="shape=partialRectangle;connectable=0;fillColor=none;top=0;left=0;bottom=0;right=0;editable=1;overflow=hidden;whiteSpace=wrap;html=1;" vertex="1" parent="wfmsOxuhuRaIuoQMw9XY-200">
          <mxGeometry width="30" height="30" as="geometry">
            <mxRectangle width="30" height="30" as="alternateBounds" />
          </mxGeometry>
        </mxCell>
        <mxCell id="wfmsOxuhuRaIuoQMw9XY-202" value="USERNAME" style="shape=partialRectangle;connectable=0;fillColor=none;top=0;left=0;bottom=0;right=0;align=left;spacingLeft=6;overflow=hidden;whiteSpace=wrap;html=1;" vertex="1" parent="wfmsOxuhuRaIuoQMw9XY-200">
          <mxGeometry x="30" width="150" height="30" as="geometry">
            <mxRectangle width="150" height="30" as="alternateBounds" />
          </mxGeometry>
        </mxCell>
        <mxCell id="wfmsOxuhuRaIuoQMw9XY-203" value="" style="shape=tableRow;horizontal=0;startSize=0;swimlaneHead=0;swimlaneBody=0;fillColor=none;collapsible=0;dropTarget=0;points=[[0,0.5],[1,0.5]];portConstraint=eastwest;top=0;left=0;right=0;bottom=0;" vertex="1" parent="wfmsOxuhuRaIuoQMw9XY-196">
          <mxGeometry y="90" width="180" height="30" as="geometry" />
        </mxCell>
        <mxCell id="wfmsOxuhuRaIuoQMw9XY-204" value="" style="shape=partialRectangle;connectable=0;fillColor=none;top=0;left=0;bottom=0;right=0;editable=1;overflow=hidden;whiteSpace=wrap;html=1;" vertex="1" parent="wfmsOxuhuRaIuoQMw9XY-203">
          <mxGeometry width="30" height="30" as="geometry">
            <mxRectangle width="30" height="30" as="alternateBounds" />
          </mxGeometry>
        </mxCell>
        <mxCell id="wfmsOxuhuRaIuoQMw9XY-205" value="PASSWORD_HASH" style="shape=partialRectangle;connectable=0;fillColor=none;top=0;left=0;bottom=0;right=0;align=left;spacingLeft=6;overflow=hidden;whiteSpace=wrap;html=1;" vertex="1" parent="wfmsOxuhuRaIuoQMw9XY-203">
          <mxGeometry x="30" width="150" height="30" as="geometry">
            <mxRectangle width="150" height="30" as="alternateBounds" />
          </mxGeometry>
        </mxCell>
        <mxCell id="wfmsOxuhuRaIuoQMw9XY-212" style="edgeStyle=orthogonalEdgeStyle;rounded=0;orthogonalLoop=1;jettySize=auto;html=1;exitX=1;exitY=0.5;exitDx=0;exitDy=0;entryX=0;entryY=0.5;entryDx=0;entryDy=0;endArrow=ERone;endFill=0;startArrow=ERone;startFill=0;" edge="1" parent="1" source="wfmsOxuhuRaIuoQMw9XY-197" target="wfmsOxuhuRaIuoQMw9XY-99">
          <mxGeometry relative="1" as="geometry" />
        </mxCell>
        <mxCell id="wfmsOxuhuRaIuoQMw9XY-213" value="MASTER_INFO" style="shape=table;startSize=30;container=1;collapsible=1;childLayout=tableLayout;fixedRows=1;rowLines=0;fontStyle=1;align=center;resizeLast=1;html=1;" vertex="1" parent="1">
          <mxGeometry x="-1479" y="2221" width="180" height="180.4117395737594" as="geometry" />
        </mxCell>
        <mxCell id="wfmsOxuhuRaIuoQMw9XY-230" value="" style="shape=tableRow;horizontal=0;startSize=0;swimlaneHead=0;swimlaneBody=0;fillColor=none;collapsible=0;dropTarget=0;points=[[0,0.5],[1,0.5]];portConstraint=eastwest;top=0;left=0;right=0;bottom=1;" vertex="1" parent="wfmsOxuhuRaIuoQMw9XY-213">
          <mxGeometry y="30" width="180" height="30" as="geometry" />
        </mxCell>
        <mxCell id="wfmsOxuhuRaIuoQMw9XY-231" value="PK" style="shape=partialRectangle;connectable=0;fillColor=none;top=0;left=0;bottom=0;right=0;fontStyle=1;overflow=hidden;whiteSpace=wrap;html=1;" vertex="1" parent="wfmsOxuhuRaIuoQMw9XY-230">
          <mxGeometry width="30" height="30" as="geometry">
            <mxRectangle width="30" height="30" as="alternateBounds" />
          </mxGeometry>
        </mxCell>
        <mxCell id="wfmsOxuhuRaIuoQMw9XY-232" value="ID" style="shape=partialRectangle;connectable=0;fillColor=none;top=0;left=0;bottom=0;right=0;align=left;spacingLeft=6;fontStyle=5;overflow=hidden;whiteSpace=wrap;html=1;" vertex="1" parent="wfmsOxuhuRaIuoQMw9XY-230">
          <mxGeometry x="30" width="150" height="30" as="geometry">
            <mxRectangle width="150" height="30" as="alternateBounds" />
          </mxGeometry>
        </mxCell>
        <mxCell id="wfmsOxuhuRaIuoQMw9XY-217" value="" style="shape=tableRow;horizontal=0;startSize=0;swimlaneHead=0;swimlaneBody=0;fillColor=none;collapsible=0;dropTarget=0;points=[[0,0.5],[1,0.5]];portConstraint=eastwest;top=0;left=0;right=0;bottom=0;swimlaneFillColor=none;swimlaneLine=0;rounded=0;shadow=0;flipH=1;flipV=1;" vertex="1" parent="wfmsOxuhuRaIuoQMw9XY-213">
          <mxGeometry y="60" width="180" height="30" as="geometry" />
        </mxCell>
        <mxCell id="wfmsOxuhuRaIuoQMw9XY-218" value="FK" style="shape=partialRectangle;connectable=0;fillColor=none;top=0;left=0;bottom=0;right=0;editable=1;overflow=hidden;whiteSpace=wrap;html=1;" vertex="1" parent="wfmsOxuhuRaIuoQMw9XY-217">
          <mxGeometry width="30" height="30" as="geometry">
            <mxRectangle width="30" height="30" as="alternateBounds" />
          </mxGeometry>
        </mxCell>
        <mxCell id="wfmsOxuhuRaIuoQMw9XY-219" value="SERVICES" style="shape=partialRectangle;connectable=0;fillColor=none;top=0;left=0;bottom=0;right=0;align=left;spacingLeft=6;overflow=hidden;whiteSpace=wrap;html=1;shadow=0;" vertex="1" parent="wfmsOxuhuRaIuoQMw9XY-217">
          <mxGeometry x="30" width="150" height="30" as="geometry">
            <mxRectangle width="150" height="30" as="alternateBounds" />
          </mxGeometry>
        </mxCell>
        <mxCell id="wfmsOxuhuRaIuoQMw9XY-237" value="" style="shape=tableRow;horizontal=0;startSize=0;swimlaneHead=0;swimlaneBody=0;fillColor=none;collapsible=0;dropTarget=0;points=[[0,0.5],[1,0.5]];portConstraint=eastwest;top=0;left=0;right=0;bottom=0;" vertex="1" parent="wfmsOxuhuRaIuoQMw9XY-213">
          <mxGeometry y="90" width="180" height="30" as="geometry" />
        </mxCell>
        <mxCell id="wfmsOxuhuRaIuoQMw9XY-238" value="FK" style="shape=partialRectangle;connectable=0;fillColor=none;top=0;left=0;bottom=0;right=0;editable=1;overflow=hidden;whiteSpace=wrap;html=1;" vertex="1" parent="wfmsOxuhuRaIuoQMw9XY-237">
          <mxGeometry width="30" height="30" as="geometry">
            <mxRectangle width="30" height="30" as="alternateBounds" />
          </mxGeometry>
        </mxCell>
        <mxCell id="wfmsOxuhuRaIuoQMw9XY-239" value="USER_ID" style="shape=partialRectangle;connectable=0;fillColor=none;top=0;left=0;bottom=0;right=0;align=left;spacingLeft=6;overflow=hidden;whiteSpace=wrap;html=1;" vertex="1" parent="wfmsOxuhuRaIuoQMw9XY-237">
          <mxGeometry x="30" width="150" height="30" as="geometry">
            <mxRectangle width="150" height="30" as="alternateBounds" />
          </mxGeometry>
        </mxCell>
        <mxCell id="wfmsOxuhuRaIuoQMw9XY-276" value="" style="shape=tableRow;horizontal=0;startSize=0;swimlaneHead=0;swimlaneBody=0;fillColor=none;collapsible=0;dropTarget=0;points=[[0,0.5],[1,0.5]];portConstraint=eastwest;top=0;left=0;right=0;bottom=0;" vertex="1" parent="wfmsOxuhuRaIuoQMw9XY-213">
          <mxGeometry y="120" width="180" height="30" as="geometry" />
        </mxCell>
        <mxCell id="wfmsOxuhuRaIuoQMw9XY-277" value="" style="shape=partialRectangle;connectable=0;fillColor=none;top=0;left=0;bottom=0;right=0;editable=1;overflow=hidden;whiteSpace=wrap;html=1;" vertex="1" parent="wfmsOxuhuRaIuoQMw9XY-276">
          <mxGeometry width="30" height="30" as="geometry">
            <mxRectangle width="30" height="30" as="alternateBounds" />
          </mxGeometry>
        </mxCell>
        <mxCell id="wfmsOxuhuRaIuoQMw9XY-278" value="DESCRIPTION" style="shape=partialRectangle;connectable=0;fillColor=none;top=0;left=0;bottom=0;right=0;align=left;spacingLeft=6;overflow=hidden;whiteSpace=wrap;html=1;" vertex="1" parent="wfmsOxuhuRaIuoQMw9XY-276">
          <mxGeometry x="30" width="150" height="30" as="geometry">
            <mxRectangle width="150" height="30" as="alternateBounds" />
          </mxGeometry>
        </mxCell>
        <mxCell id="wfmsOxuhuRaIuoQMw9XY-220" value="" style="shape=tableRow;horizontal=0;startSize=0;swimlaneHead=0;swimlaneBody=0;fillColor=none;collapsible=0;dropTarget=0;points=[[0,0.5],[1,0.5]];portConstraint=eastwest;top=0;left=0;right=0;bottom=0;" vertex="1" parent="wfmsOxuhuRaIuoQMw9XY-213">
          <mxGeometry y="150" width="180" height="30" as="geometry" />
        </mxCell>
        <mxCell id="wfmsOxuhuRaIuoQMw9XY-221" value="" style="shape=partialRectangle;connectable=0;fillColor=none;top=0;left=0;bottom=0;right=0;editable=1;overflow=hidden;whiteSpace=wrap;html=1;" vertex="1" parent="wfmsOxuhuRaIuoQMw9XY-220">
          <mxGeometry width="30" height="30" as="geometry">
            <mxRectangle width="30" height="30" as="alternateBounds" />
          </mxGeometry>
        </mxCell>
        <mxCell id="wfmsOxuhuRaIuoQMw9XY-222" value="BUSINESS_ADDRESS" style="shape=partialRectangle;connectable=0;fillColor=none;top=0;left=0;bottom=0;right=0;align=left;spacingLeft=6;overflow=hidden;whiteSpace=wrap;html=1;" vertex="1" parent="wfmsOxuhuRaIuoQMw9XY-220">
          <mxGeometry x="30" width="150" height="30" as="geometry">
            <mxRectangle width="150" height="30" as="alternateBounds" />
          </mxGeometry>
        </mxCell>
        <mxCell id="wfmsOxuhuRaIuoQMw9XY-229" style="edgeStyle=orthogonalEdgeStyle;rounded=0;orthogonalLoop=1;jettySize=auto;html=1;exitX=0;exitY=0.5;exitDx=0;exitDy=0;entryX=1;entryY=0.198;entryDx=0;entryDy=0;endArrow=ERone;endFill=0;startArrow=ERoneToMany;startFill=0;entryPerimeter=0;" edge="1" parent="1" source="wfmsOxuhuRaIuoQMw9XY-165" target="wfmsOxuhuRaIuoQMw9XY-230">
          <mxGeometry relative="1" as="geometry">
            <Array as="points">
              <mxPoint x="-1247" y="2134" />
              <mxPoint x="-1247" y="2257" />
            </Array>
          </mxGeometry>
        </mxCell>
        <mxCell id="wfmsOxuhuRaIuoQMw9XY-240" style="edgeStyle=orthogonalEdgeStyle;rounded=0;orthogonalLoop=1;jettySize=auto;html=1;exitX=1;exitY=0.5;exitDx=0;exitDy=0;startArrow=ERone;startFill=0;endArrow=ERone;endFill=0;entryX=-0.002;entryY=0.483;entryDx=0;entryDy=0;entryPerimeter=0;" edge="1" parent="1" source="wfmsOxuhuRaIuoQMw9XY-237" target="wfmsOxuhuRaIuoQMw9XY-96">
          <mxGeometry relative="1" as="geometry">
            <mxPoint x="-1114" y="2452" as="targetPoint" />
            <Array as="points">
              <mxPoint x="-1299" y="2325" />
              <mxPoint x="-1253" y="2325" />
              <mxPoint x="-1253" y="2452" />
            </Array>
          </mxGeometry>
        </mxCell>
        <mxCell id="wfmsOxuhuRaIuoQMw9XY-241" value="BOOKING" style="shape=table;startSize=30;container=1;collapsible=1;childLayout=tableLayout;fixedRows=1;rowLines=0;fontStyle=1;align=center;resizeLast=1;html=1;" vertex="1" parent="1">
          <mxGeometry x="-1740" y="2407.71" width="180" height="240.4117395737594" as="geometry" />
        </mxCell>
        <mxCell id="wfmsOxuhuRaIuoQMw9XY-242" value="" style="shape=tableRow;horizontal=0;startSize=0;swimlaneHead=0;swimlaneBody=0;fillColor=none;collapsible=0;dropTarget=0;points=[[0,0.5],[1,0.5]];portConstraint=eastwest;top=0;left=0;right=0;bottom=1;" vertex="1" parent="wfmsOxuhuRaIuoQMw9XY-241">
          <mxGeometry y="30" width="180" height="30" as="geometry" />
        </mxCell>
        <mxCell id="wfmsOxuhuRaIuoQMw9XY-243" value="PK" style="shape=partialRectangle;connectable=0;fillColor=none;top=0;left=0;bottom=0;right=0;fontStyle=1;overflow=hidden;whiteSpace=wrap;html=1;" vertex="1" parent="wfmsOxuhuRaIuoQMw9XY-242">
          <mxGeometry width="30" height="30" as="geometry">
            <mxRectangle width="30" height="30" as="alternateBounds" />
          </mxGeometry>
        </mxCell>
        <mxCell id="wfmsOxuhuRaIuoQMw9XY-244" value="ID" style="shape=partialRectangle;connectable=0;fillColor=none;top=0;left=0;bottom=0;right=0;align=left;spacingLeft=6;fontStyle=5;overflow=hidden;whiteSpace=wrap;html=1;" vertex="1" parent="wfmsOxuhuRaIuoQMw9XY-242">
          <mxGeometry x="30" width="150" height="30" as="geometry">
            <mxRectangle width="150" height="30" as="alternateBounds" />
          </mxGeometry>
        </mxCell>
        <mxCell id="wfmsOxuhuRaIuoQMw9XY-245" value="" style="shape=tableRow;horizontal=0;startSize=0;swimlaneHead=0;swimlaneBody=0;fillColor=none;collapsible=0;dropTarget=0;points=[[0,0.5],[1,0.5]];portConstraint=eastwest;top=0;left=0;right=0;bottom=0;swimlaneFillColor=none;swimlaneLine=0;rounded=0;shadow=0;flipH=1;flipV=1;" vertex="1" parent="wfmsOxuhuRaIuoQMw9XY-241">
          <mxGeometry y="60" width="180" height="30" as="geometry" />
        </mxCell>
        <mxCell id="wfmsOxuhuRaIuoQMw9XY-246" value="FK" style="shape=partialRectangle;connectable=0;fillColor=none;top=0;left=0;bottom=0;right=0;editable=1;overflow=hidden;whiteSpace=wrap;html=1;" vertex="1" parent="wfmsOxuhuRaIuoQMw9XY-245">
          <mxGeometry width="30" height="30" as="geometry">
            <mxRectangle width="30" height="30" as="alternateBounds" />
          </mxGeometry>
        </mxCell>
        <mxCell id="wfmsOxuhuRaIuoQMw9XY-247" value="SERVICE" style="shape=partialRectangle;connectable=0;fillColor=none;top=0;left=0;bottom=0;right=0;align=left;spacingLeft=6;overflow=hidden;whiteSpace=wrap;html=1;shadow=0;" vertex="1" parent="wfmsOxuhuRaIuoQMw9XY-245">
          <mxGeometry x="30" width="150" height="30" as="geometry">
            <mxRectangle width="150" height="30" as="alternateBounds" />
          </mxGeometry>
        </mxCell>
        <mxCell id="wfmsOxuhuRaIuoQMw9XY-248" value="" style="shape=tableRow;horizontal=0;startSize=0;swimlaneHead=0;swimlaneBody=0;fillColor=none;collapsible=0;dropTarget=0;points=[[0,0.5],[1,0.5]];portConstraint=eastwest;top=0;left=0;right=0;bottom=0;" vertex="1" parent="wfmsOxuhuRaIuoQMw9XY-241">
          <mxGeometry y="90" width="180" height="30" as="geometry" />
        </mxCell>
        <mxCell id="wfmsOxuhuRaIuoQMw9XY-249" value="FK" style="shape=partialRectangle;connectable=0;fillColor=none;top=0;left=0;bottom=0;right=0;editable=1;overflow=hidden;whiteSpace=wrap;html=1;" vertex="1" parent="wfmsOxuhuRaIuoQMw9XY-248">
          <mxGeometry width="30" height="30" as="geometry">
            <mxRectangle width="30" height="30" as="alternateBounds" />
          </mxGeometry>
        </mxCell>
        <mxCell id="wfmsOxuhuRaIuoQMw9XY-250" value="MASTER_ID" style="shape=partialRectangle;connectable=0;fillColor=none;top=0;left=0;bottom=0;right=0;align=left;spacingLeft=6;overflow=hidden;whiteSpace=wrap;html=1;" vertex="1" parent="wfmsOxuhuRaIuoQMw9XY-248">
          <mxGeometry x="30" width="150" height="30" as="geometry">
            <mxRectangle width="150" height="30" as="alternateBounds" />
          </mxGeometry>
        </mxCell>
        <mxCell id="wfmsOxuhuRaIuoQMw9XY-254" value="" style="shape=tableRow;horizontal=0;startSize=0;swimlaneHead=0;swimlaneBody=0;fillColor=none;collapsible=0;dropTarget=0;points=[[0,0.5],[1,0.5]];portConstraint=eastwest;top=0;left=0;right=0;bottom=0;" vertex="1" parent="wfmsOxuhuRaIuoQMw9XY-241">
          <mxGeometry y="120" width="180" height="30" as="geometry" />
        </mxCell>
        <mxCell id="wfmsOxuhuRaIuoQMw9XY-255" value="FK" style="shape=partialRectangle;connectable=0;fillColor=none;top=0;left=0;bottom=0;right=0;editable=1;overflow=hidden;whiteSpace=wrap;html=1;" vertex="1" parent="wfmsOxuhuRaIuoQMw9XY-254">
          <mxGeometry width="30" height="30" as="geometry">
            <mxRectangle width="30" height="30" as="alternateBounds" />
          </mxGeometry>
        </mxCell>
        <mxCell id="wfmsOxuhuRaIuoQMw9XY-256" value="CLIENT_ID" style="shape=partialRectangle;connectable=0;fillColor=none;top=0;left=0;bottom=0;right=0;align=left;spacingLeft=6;overflow=hidden;whiteSpace=wrap;html=1;" vertex="1" parent="wfmsOxuhuRaIuoQMw9XY-254">
          <mxGeometry x="30" width="150" height="30" as="geometry">
            <mxRectangle width="150" height="30" as="alternateBounds" />
          </mxGeometry>
        </mxCell>
        <mxCell id="wfmsOxuhuRaIuoQMw9XY-257" value="" style="shape=tableRow;horizontal=0;startSize=0;swimlaneHead=0;swimlaneBody=0;fillColor=none;collapsible=0;dropTarget=0;points=[[0,0.5],[1,0.5]];portConstraint=eastwest;top=0;left=0;right=0;bottom=0;" vertex="1" parent="wfmsOxuhuRaIuoQMw9XY-241">
          <mxGeometry y="150" width="180" height="30" as="geometry" />
        </mxCell>
        <mxCell id="wfmsOxuhuRaIuoQMw9XY-258" value="" style="shape=partialRectangle;connectable=0;fillColor=none;top=0;left=0;bottom=0;right=0;editable=1;overflow=hidden;whiteSpace=wrap;html=1;" vertex="1" parent="wfmsOxuhuRaIuoQMw9XY-257">
          <mxGeometry width="30" height="30" as="geometry">
            <mxRectangle width="30" height="30" as="alternateBounds" />
          </mxGeometry>
        </mxCell>
        <mxCell id="wfmsOxuhuRaIuoQMw9XY-259" value="DATE" style="shape=partialRectangle;connectable=0;fillColor=none;top=0;left=0;bottom=0;right=0;align=left;spacingLeft=6;overflow=hidden;whiteSpace=wrap;html=1;" vertex="1" parent="wfmsOxuhuRaIuoQMw9XY-257">
          <mxGeometry x="30" width="150" height="30" as="geometry">
            <mxRectangle width="150" height="30" as="alternateBounds" />
          </mxGeometry>
        </mxCell>
        <mxCell id="wfmsOxuhuRaIuoQMw9XY-260" value="" style="shape=tableRow;horizontal=0;startSize=0;swimlaneHead=0;swimlaneBody=0;fillColor=none;collapsible=0;dropTarget=0;points=[[0,0.5],[1,0.5]];portConstraint=eastwest;top=0;left=0;right=0;bottom=0;" vertex="1" parent="wfmsOxuhuRaIuoQMw9XY-241">
          <mxGeometry y="180" width="180" height="30" as="geometry" />
        </mxCell>
        <mxCell id="wfmsOxuhuRaIuoQMw9XY-261" value="" style="shape=partialRectangle;connectable=0;fillColor=none;top=0;left=0;bottom=0;right=0;editable=1;overflow=hidden;whiteSpace=wrap;html=1;" vertex="1" parent="wfmsOxuhuRaIuoQMw9XY-260">
          <mxGeometry width="30" height="30" as="geometry">
            <mxRectangle width="30" height="30" as="alternateBounds" />
          </mxGeometry>
        </mxCell>
        <mxCell id="wfmsOxuhuRaIuoQMw9XY-262" value="TIME" style="shape=partialRectangle;connectable=0;fillColor=none;top=0;left=0;bottom=0;right=0;align=left;spacingLeft=6;overflow=hidden;whiteSpace=wrap;html=1;" vertex="1" parent="wfmsOxuhuRaIuoQMw9XY-260">
          <mxGeometry x="30" width="150" height="30" as="geometry">
            <mxRectangle width="150" height="30" as="alternateBounds" />
          </mxGeometry>
        </mxCell>
        <mxCell id="wfmsOxuhuRaIuoQMw9XY-251" value="" style="shape=tableRow;horizontal=0;startSize=0;swimlaneHead=0;swimlaneBody=0;fillColor=none;collapsible=0;dropTarget=0;points=[[0,0.5],[1,0.5]];portConstraint=eastwest;top=0;left=0;right=0;bottom=0;" vertex="1" parent="wfmsOxuhuRaIuoQMw9XY-241">
          <mxGeometry y="210" width="180" height="30" as="geometry" />
        </mxCell>
        <mxCell id="wfmsOxuhuRaIuoQMw9XY-252" value="" style="shape=partialRectangle;connectable=0;fillColor=none;top=0;left=0;bottom=0;right=0;editable=1;overflow=hidden;whiteSpace=wrap;html=1;" vertex="1" parent="wfmsOxuhuRaIuoQMw9XY-251">
          <mxGeometry width="30" height="30" as="geometry">
            <mxRectangle width="30" height="30" as="alternateBounds" />
          </mxGeometry>
        </mxCell>
        <mxCell id="wfmsOxuhuRaIuoQMw9XY-253" value="BOOKED" style="shape=partialRectangle;connectable=0;fillColor=none;top=0;left=0;bottom=0;right=0;align=left;spacingLeft=6;overflow=hidden;whiteSpace=wrap;html=1;" vertex="1" parent="wfmsOxuhuRaIuoQMw9XY-251">
          <mxGeometry x="30" width="150" height="30" as="geometry">
            <mxRectangle width="150" height="30" as="alternateBounds" />
          </mxGeometry>
        </mxCell>
        <mxCell id="wfmsOxuhuRaIuoQMw9XY-263" value="SERVICE_TYPE" style="shape=table;startSize=30;container=1;collapsible=1;childLayout=tableLayout;fixedRows=1;rowLines=0;fontStyle=1;align=center;resizeLast=1;html=1;" vertex="1" parent="1">
          <mxGeometry x="-1479" y="2118" width="180" height="90.4117395737594" as="geometry" />
        </mxCell>
        <mxCell id="wfmsOxuhuRaIuoQMw9XY-264" value="" style="shape=tableRow;horizontal=0;startSize=0;swimlaneHead=0;swimlaneBody=0;fillColor=none;collapsible=0;dropTarget=0;points=[[0,0.5],[1,0.5]];portConstraint=eastwest;top=0;left=0;right=0;bottom=1;" vertex="1" parent="wfmsOxuhuRaIuoQMw9XY-263">
          <mxGeometry y="30" width="180" height="30" as="geometry" />
        </mxCell>
        <mxCell id="wfmsOxuhuRaIuoQMw9XY-265" value="PK" style="shape=partialRectangle;connectable=0;fillColor=none;top=0;left=0;bottom=0;right=0;fontStyle=1;overflow=hidden;whiteSpace=wrap;html=1;" vertex="1" parent="wfmsOxuhuRaIuoQMw9XY-264">
          <mxGeometry width="30" height="30" as="geometry">
            <mxRectangle width="30" height="30" as="alternateBounds" />
          </mxGeometry>
        </mxCell>
        <mxCell id="wfmsOxuhuRaIuoQMw9XY-266" value="ID" style="shape=partialRectangle;connectable=0;fillColor=none;top=0;left=0;bottom=0;right=0;align=left;spacingLeft=6;fontStyle=5;overflow=hidden;whiteSpace=wrap;html=1;" vertex="1" parent="wfmsOxuhuRaIuoQMw9XY-264">
          <mxGeometry x="30" width="150" height="30" as="geometry">
            <mxRectangle width="150" height="30" as="alternateBounds" />
          </mxGeometry>
        </mxCell>
        <mxCell id="wfmsOxuhuRaIuoQMw9XY-267" value="" style="shape=tableRow;horizontal=0;startSize=0;swimlaneHead=0;swimlaneBody=0;fillColor=none;collapsible=0;dropTarget=0;points=[[0,0.5],[1,0.5]];portConstraint=eastwest;top=0;left=0;right=0;bottom=0;swimlaneFillColor=none;swimlaneLine=0;rounded=0;shadow=0;flipH=1;flipV=1;" vertex="1" parent="wfmsOxuhuRaIuoQMw9XY-263">
          <mxGeometry y="60" width="180" height="30" as="geometry" />
        </mxCell>
        <mxCell id="wfmsOxuhuRaIuoQMw9XY-268" value="" style="shape=partialRectangle;connectable=0;fillColor=none;top=0;left=0;bottom=0;right=0;editable=1;overflow=hidden;whiteSpace=wrap;html=1;" vertex="1" parent="wfmsOxuhuRaIuoQMw9XY-267">
          <mxGeometry width="30" height="30" as="geometry">
            <mxRectangle width="30" height="30" as="alternateBounds" />
          </mxGeometry>
        </mxCell>
        <mxCell id="wfmsOxuhuRaIuoQMw9XY-269" value="TITLE" style="shape=partialRectangle;connectable=0;fillColor=none;top=0;left=0;bottom=0;right=0;align=left;spacingLeft=6;overflow=hidden;whiteSpace=wrap;html=1;shadow=0;" vertex="1" parent="wfmsOxuhuRaIuoQMw9XY-267">
          <mxGeometry x="30" width="150" height="30" as="geometry">
            <mxRectangle width="150" height="30" as="alternateBounds" />
          </mxGeometry>
        </mxCell>
        <mxCell id="wfmsOxuhuRaIuoQMw9XY-279" style="edgeStyle=orthogonalEdgeStyle;rounded=0;orthogonalLoop=1;jettySize=auto;html=1;entryX=-0.001;entryY=0.672;entryDx=0;entryDy=0;endArrow=ERoneToMany;endFill=0;startArrow=ERone;startFill=0;exitX=0;exitY=0.5;exitDx=0;exitDy=0;entryPerimeter=0;" edge="1" parent="1" source="wfmsOxuhuRaIuoQMw9XY-217" target="wfmsOxuhuRaIuoQMw9XY-264">
          <mxGeometry relative="1" as="geometry" />
        </mxCell>
        <mxCell id="wfmsOxuhuRaIuoQMw9XY-280" style="edgeStyle=orthogonalEdgeStyle;rounded=0;orthogonalLoop=1;jettySize=auto;html=1;exitX=1;exitY=0.5;exitDx=0;exitDy=0;entryX=-0.002;entryY=0.312;entryDx=0;entryDy=0;entryPerimeter=0;endArrow=ERoneToMany;endFill=0;startArrow=ERone;startFill=0;" edge="1" parent="1" source="wfmsOxuhuRaIuoQMw9XY-245" target="wfmsOxuhuRaIuoQMw9XY-264">
          <mxGeometry relative="1" as="geometry">
            <Array as="points">
              <mxPoint x="-1527" y="2483" />
              <mxPoint x="-1527" y="2157" />
            </Array>
          </mxGeometry>
        </mxCell>
        <mxCell id="wfmsOxuhuRaIuoQMw9XY-281" style="edgeStyle=orthogonalEdgeStyle;rounded=0;orthogonalLoop=1;jettySize=auto;html=1;exitX=1;exitY=0.5;exitDx=0;exitDy=0;entryX=0;entryY=0.5;entryDx=0;entryDy=0;endArrow=ERone;endFill=0;startArrow=ERone;startFill=0;" edge="1" parent="1" source="wfmsOxuhuRaIuoQMw9XY-248" target="wfmsOxuhuRaIuoQMw9XY-237">
          <mxGeometry relative="1" as="geometry">
            <Array as="points">
              <mxPoint x="-1512" y="2513" />
              <mxPoint x="-1512" y="2326" />
            </Array>
          </mxGeometry>
        </mxCell>
        <mxCell id="wfmsOxuhuRaIuoQMw9XY-282" style="edgeStyle=orthogonalEdgeStyle;rounded=0;orthogonalLoop=1;jettySize=auto;html=1;exitX=1;exitY=0.5;exitDx=0;exitDy=0;endArrow=ERone;endFill=0;startArrow=ERone;startFill=0;entryX=-0.003;entryY=0.811;entryDx=0;entryDy=0;entryPerimeter=0;" edge="1" parent="1" source="wfmsOxuhuRaIuoQMw9XY-254" target="wfmsOxuhuRaIuoQMw9XY-96">
          <mxGeometry relative="1" as="geometry" />
        </mxCell>
        <mxCell id="wfmsOxuhuRaIuoQMw9XY-283" value="NOTIFICATION" style="shape=table;startSize=30;container=1;collapsible=1;childLayout=tableLayout;fixedRows=1;rowLines=0;fontStyle=1;align=center;resizeLast=1;html=1;" vertex="1" parent="1">
          <mxGeometry x="-794" y="2151" width="180" height="210.4117395737594" as="geometry" />
        </mxCell>
        <mxCell id="wfmsOxuhuRaIuoQMw9XY-284" value="" style="shape=tableRow;horizontal=0;startSize=0;swimlaneHead=0;swimlaneBody=0;fillColor=none;collapsible=0;dropTarget=0;points=[[0,0.5],[1,0.5]];portConstraint=eastwest;top=0;left=0;right=0;bottom=1;" vertex="1" parent="wfmsOxuhuRaIuoQMw9XY-283">
          <mxGeometry y="30" width="180" height="30" as="geometry" />
        </mxCell>
        <mxCell id="wfmsOxuhuRaIuoQMw9XY-285" value="PK" style="shape=partialRectangle;connectable=0;fillColor=none;top=0;left=0;bottom=0;right=0;fontStyle=1;overflow=hidden;whiteSpace=wrap;html=1;" vertex="1" parent="wfmsOxuhuRaIuoQMw9XY-284">
          <mxGeometry width="30" height="30" as="geometry">
            <mxRectangle width="30" height="30" as="alternateBounds" />
          </mxGeometry>
        </mxCell>
        <mxCell id="wfmsOxuhuRaIuoQMw9XY-286" value="ID" style="shape=partialRectangle;connectable=0;fillColor=none;top=0;left=0;bottom=0;right=0;align=left;spacingLeft=6;fontStyle=5;overflow=hidden;whiteSpace=wrap;html=1;" vertex="1" parent="wfmsOxuhuRaIuoQMw9XY-284">
          <mxGeometry x="30" width="150" height="30" as="geometry">
            <mxRectangle width="150" height="30" as="alternateBounds" />
          </mxGeometry>
        </mxCell>
        <mxCell id="wfmsOxuhuRaIuoQMw9XY-287" value="" style="shape=tableRow;horizontal=0;startSize=0;swimlaneHead=0;swimlaneBody=0;fillColor=none;collapsible=0;dropTarget=0;points=[[0,0.5],[1,0.5]];portConstraint=eastwest;top=0;left=0;right=0;bottom=0;" vertex="1" parent="wfmsOxuhuRaIuoQMw9XY-283">
          <mxGeometry y="60" width="180" height="30" as="geometry" />
        </mxCell>
        <mxCell id="wfmsOxuhuRaIuoQMw9XY-288" value="FK" style="shape=partialRectangle;connectable=0;fillColor=none;top=0;left=0;bottom=0;right=0;editable=1;overflow=hidden;whiteSpace=wrap;html=1;" vertex="1" parent="wfmsOxuhuRaIuoQMw9XY-287">
          <mxGeometry width="30" height="30" as="geometry">
            <mxRectangle width="30" height="30" as="alternateBounds" />
          </mxGeometry>
        </mxCell>
        <mxCell id="wfmsOxuhuRaIuoQMw9XY-289" value="RECEIVER_ID" style="shape=partialRectangle;connectable=0;fillColor=none;top=0;left=0;bottom=0;right=0;align=left;spacingLeft=6;overflow=hidden;whiteSpace=wrap;html=1;" vertex="1" parent="wfmsOxuhuRaIuoQMw9XY-287">
          <mxGeometry x="30" width="150" height="30" as="geometry">
            <mxRectangle width="150" height="30" as="alternateBounds" />
          </mxGeometry>
        </mxCell>
        <mxCell id="wfmsOxuhuRaIuoQMw9XY-290" value="" style="shape=tableRow;horizontal=0;startSize=0;swimlaneHead=0;swimlaneBody=0;fillColor=none;collapsible=0;dropTarget=0;points=[[0,0.5],[1,0.5]];portConstraint=eastwest;top=0;left=0;right=0;bottom=0;" vertex="1" parent="wfmsOxuhuRaIuoQMw9XY-283">
          <mxGeometry y="90" width="180" height="30" as="geometry" />
        </mxCell>
        <mxCell id="wfmsOxuhuRaIuoQMw9XY-291" value="" style="shape=partialRectangle;connectable=0;fillColor=none;top=0;left=0;bottom=0;right=0;editable=1;overflow=hidden;whiteSpace=wrap;html=1;" vertex="1" parent="wfmsOxuhuRaIuoQMw9XY-290">
          <mxGeometry width="30" height="30" as="geometry">
            <mxRectangle width="30" height="30" as="alternateBounds" />
          </mxGeometry>
        </mxCell>
        <mxCell id="wfmsOxuhuRaIuoQMw9XY-292" value="CREATION_DATE" style="shape=partialRectangle;connectable=0;fillColor=none;top=0;left=0;bottom=0;right=0;align=left;spacingLeft=6;overflow=hidden;whiteSpace=wrap;html=1;" vertex="1" parent="wfmsOxuhuRaIuoQMw9XY-290">
          <mxGeometry x="30" width="150" height="30" as="geometry">
            <mxRectangle width="150" height="30" as="alternateBounds" />
          </mxGeometry>
        </mxCell>
        <mxCell id="wfmsOxuhuRaIuoQMw9XY-293" value="" style="shape=tableRow;horizontal=0;startSize=0;swimlaneHead=0;swimlaneBody=0;fillColor=none;collapsible=0;dropTarget=0;points=[[0,0.5],[1,0.5]];portConstraint=eastwest;top=0;left=0;right=0;bottom=0;" vertex="1" parent="wfmsOxuhuRaIuoQMw9XY-283">
          <mxGeometry y="120" width="180" height="30" as="geometry" />
        </mxCell>
        <mxCell id="wfmsOxuhuRaIuoQMw9XY-294" value="" style="shape=partialRectangle;connectable=0;fillColor=none;top=0;left=0;bottom=0;right=0;editable=1;overflow=hidden;whiteSpace=wrap;html=1;" vertex="1" parent="wfmsOxuhuRaIuoQMw9XY-293">
          <mxGeometry width="30" height="30" as="geometry">
            <mxRectangle width="30" height="30" as="alternateBounds" />
          </mxGeometry>
        </mxCell>
        <mxCell id="wfmsOxuhuRaIuoQMw9XY-295" value="TITLE" style="shape=partialRectangle;connectable=0;fillColor=none;top=0;left=0;bottom=0;right=0;align=left;spacingLeft=6;overflow=hidden;whiteSpace=wrap;html=1;" vertex="1" parent="wfmsOxuhuRaIuoQMw9XY-293">
          <mxGeometry x="30" width="150" height="30" as="geometry">
            <mxRectangle width="150" height="30" as="alternateBounds" />
          </mxGeometry>
        </mxCell>
        <mxCell id="wfmsOxuhuRaIuoQMw9XY-299" value="" style="shape=tableRow;horizontal=0;startSize=0;swimlaneHead=0;swimlaneBody=0;fillColor=none;collapsible=0;dropTarget=0;points=[[0,0.5],[1,0.5]];portConstraint=eastwest;top=0;left=0;right=0;bottom=0;" vertex="1" parent="wfmsOxuhuRaIuoQMw9XY-283">
          <mxGeometry y="150" width="180" height="30" as="geometry" />
        </mxCell>
        <mxCell id="wfmsOxuhuRaIuoQMw9XY-300" value="" style="shape=partialRectangle;connectable=0;fillColor=none;top=0;left=0;bottom=0;right=0;editable=1;overflow=hidden;whiteSpace=wrap;html=1;" vertex="1" parent="wfmsOxuhuRaIuoQMw9XY-299">
          <mxGeometry width="30" height="30" as="geometry">
            <mxRectangle width="30" height="30" as="alternateBounds" />
          </mxGeometry>
        </mxCell>
        <mxCell id="wfmsOxuhuRaIuoQMw9XY-301" value="MESSAGE" style="shape=partialRectangle;connectable=0;fillColor=none;top=0;left=0;bottom=0;right=0;align=left;spacingLeft=6;overflow=hidden;whiteSpace=wrap;html=1;" vertex="1" parent="wfmsOxuhuRaIuoQMw9XY-299">
          <mxGeometry x="30" width="150" height="30" as="geometry">
            <mxRectangle width="150" height="30" as="alternateBounds" />
          </mxGeometry>
        </mxCell>
        <mxCell id="wfmsOxuhuRaIuoQMw9XY-296" value="" style="shape=tableRow;horizontal=0;startSize=0;swimlaneHead=0;swimlaneBody=0;fillColor=none;collapsible=0;dropTarget=0;points=[[0,0.5],[1,0.5]];portConstraint=eastwest;top=0;left=0;right=0;bottom=0;" vertex="1" parent="wfmsOxuhuRaIuoQMw9XY-283">
          <mxGeometry y="180" width="180" height="30" as="geometry" />
        </mxCell>
        <mxCell id="wfmsOxuhuRaIuoQMw9XY-297" value="" style="shape=partialRectangle;connectable=0;fillColor=none;top=0;left=0;bottom=0;right=0;editable=1;overflow=hidden;whiteSpace=wrap;html=1;" vertex="1" parent="wfmsOxuhuRaIuoQMw9XY-296">
          <mxGeometry width="30" height="30" as="geometry">
            <mxRectangle width="30" height="30" as="alternateBounds" />
          </mxGeometry>
        </mxCell>
        <mxCell id="wfmsOxuhuRaIuoQMw9XY-298" value="WATCHED" style="shape=partialRectangle;connectable=0;fillColor=none;top=0;left=0;bottom=0;right=0;align=left;spacingLeft=6;overflow=hidden;whiteSpace=wrap;html=1;" vertex="1" parent="wfmsOxuhuRaIuoQMw9XY-296">
          <mxGeometry x="30" width="150" height="30" as="geometry">
            <mxRectangle width="150" height="30" as="alternateBounds" />
          </mxGeometry>
        </mxCell>
        <mxCell id="wfmsOxuhuRaIuoQMw9XY-302" style="edgeStyle=orthogonalEdgeStyle;rounded=0;orthogonalLoop=1;jettySize=auto;html=1;exitX=0;exitY=0.5;exitDx=0;exitDy=0;entryX=1.001;entryY=0.107;entryDx=0;entryDy=0;startArrow=ERoneToMany;startFill=0;endArrow=ERone;endFill=0;entryPerimeter=0;" edge="1" parent="1" source="wfmsOxuhuRaIuoQMw9XY-284" target="wfmsOxuhuRaIuoQMw9XY-96">
          <mxGeometry relative="1" as="geometry">
            <Array as="points">
              <mxPoint x="-819" y="2196" />
              <mxPoint x="-819" y="2441" />
            </Array>
          </mxGeometry>
        </mxCell>
        <mxCell id="wfmsOxuhuRaIuoQMw9XY-303" value="REQUEST" style="shape=table;startSize=30;container=1;collapsible=1;childLayout=tableLayout;fixedRows=1;rowLines=0;fontStyle=1;align=center;resizeLast=1;html=1;" vertex="1" parent="1">
          <mxGeometry x="-764" y="2393" width="180" height="180.4117395737594" as="geometry" />
        </mxCell>
        <mxCell id="wfmsOxuhuRaIuoQMw9XY-304" value="" style="shape=tableRow;horizontal=0;startSize=0;swimlaneHead=0;swimlaneBody=0;fillColor=none;collapsible=0;dropTarget=0;points=[[0,0.5],[1,0.5]];portConstraint=eastwest;top=0;left=0;right=0;bottom=1;" vertex="1" parent="wfmsOxuhuRaIuoQMw9XY-303">
          <mxGeometry y="30" width="180" height="30" as="geometry" />
        </mxCell>
        <mxCell id="wfmsOxuhuRaIuoQMw9XY-305" value="PK" style="shape=partialRectangle;connectable=0;fillColor=none;top=0;left=0;bottom=0;right=0;fontStyle=1;overflow=hidden;whiteSpace=wrap;html=1;" vertex="1" parent="wfmsOxuhuRaIuoQMw9XY-304">
          <mxGeometry width="30" height="30" as="geometry">
            <mxRectangle width="30" height="30" as="alternateBounds" />
          </mxGeometry>
        </mxCell>
        <mxCell id="wfmsOxuhuRaIuoQMw9XY-306" value="ID" style="shape=partialRectangle;connectable=0;fillColor=none;top=0;left=0;bottom=0;right=0;align=left;spacingLeft=6;fontStyle=5;overflow=hidden;whiteSpace=wrap;html=1;" vertex="1" parent="wfmsOxuhuRaIuoQMw9XY-304">
          <mxGeometry x="30" width="150" height="30" as="geometry">
            <mxRectangle width="150" height="30" as="alternateBounds" />
          </mxGeometry>
        </mxCell>
        <mxCell id="wfmsOxuhuRaIuoQMw9XY-307" value="" style="shape=tableRow;horizontal=0;startSize=0;swimlaneHead=0;swimlaneBody=0;fillColor=none;collapsible=0;dropTarget=0;points=[[0,0.5],[1,0.5]];portConstraint=eastwest;top=0;left=0;right=0;bottom=0;" vertex="1" parent="wfmsOxuhuRaIuoQMw9XY-303">
          <mxGeometry y="60" width="180" height="30" as="geometry" />
        </mxCell>
        <mxCell id="wfmsOxuhuRaIuoQMw9XY-308" value="FK" style="shape=partialRectangle;connectable=0;fillColor=none;top=0;left=0;bottom=0;right=0;editable=1;overflow=hidden;whiteSpace=wrap;html=1;" vertex="1" parent="wfmsOxuhuRaIuoQMw9XY-307">
          <mxGeometry width="30" height="30" as="geometry">
            <mxRectangle width="30" height="30" as="alternateBounds" />
          </mxGeometry>
        </mxCell>
        <mxCell id="wfmsOxuhuRaIuoQMw9XY-309" value="USER_ID" style="shape=partialRectangle;connectable=0;fillColor=none;top=0;left=0;bottom=0;right=0;align=left;spacingLeft=6;overflow=hidden;whiteSpace=wrap;html=1;" vertex="1" parent="wfmsOxuhuRaIuoQMw9XY-307">
          <mxGeometry x="30" width="150" height="30" as="geometry">
            <mxRectangle width="150" height="30" as="alternateBounds" />
          </mxGeometry>
        </mxCell>
        <mxCell id="wfmsOxuhuRaIuoQMw9XY-310" value="" style="shape=tableRow;horizontal=0;startSize=0;swimlaneHead=0;swimlaneBody=0;fillColor=none;collapsible=0;dropTarget=0;points=[[0,0.5],[1,0.5]];portConstraint=eastwest;top=0;left=0;right=0;bottom=0;" vertex="1" parent="wfmsOxuhuRaIuoQMw9XY-303">
          <mxGeometry y="90" width="180" height="30" as="geometry" />
        </mxCell>
        <mxCell id="wfmsOxuhuRaIuoQMw9XY-311" value="" style="shape=partialRectangle;connectable=0;fillColor=none;top=0;left=0;bottom=0;right=0;editable=1;overflow=hidden;whiteSpace=wrap;html=1;" vertex="1" parent="wfmsOxuhuRaIuoQMw9XY-310">
          <mxGeometry width="30" height="30" as="geometry">
            <mxRectangle width="30" height="30" as="alternateBounds" />
          </mxGeometry>
        </mxCell>
        <mxCell id="wfmsOxuhuRaIuoQMw9XY-312" value="CREATION_DATE" style="shape=partialRectangle;connectable=0;fillColor=none;top=0;left=0;bottom=0;right=0;align=left;spacingLeft=6;overflow=hidden;whiteSpace=wrap;html=1;" vertex="1" parent="wfmsOxuhuRaIuoQMw9XY-310">
          <mxGeometry x="30" width="150" height="30" as="geometry">
            <mxRectangle width="150" height="30" as="alternateBounds" />
          </mxGeometry>
        </mxCell>
        <mxCell id="wfmsOxuhuRaIuoQMw9XY-313" value="" style="shape=tableRow;horizontal=0;startSize=0;swimlaneHead=0;swimlaneBody=0;fillColor=none;collapsible=0;dropTarget=0;points=[[0,0.5],[1,0.5]];portConstraint=eastwest;top=0;left=0;right=0;bottom=0;" vertex="1" parent="wfmsOxuhuRaIuoQMw9XY-303">
          <mxGeometry y="120" width="180" height="30" as="geometry" />
        </mxCell>
        <mxCell id="wfmsOxuhuRaIuoQMw9XY-314" value="" style="shape=partialRectangle;connectable=0;fillColor=none;top=0;left=0;bottom=0;right=0;editable=1;overflow=hidden;whiteSpace=wrap;html=1;" vertex="1" parent="wfmsOxuhuRaIuoQMw9XY-313">
          <mxGeometry width="30" height="30" as="geometry">
            <mxRectangle width="30" height="30" as="alternateBounds" />
          </mxGeometry>
        </mxCell>
        <mxCell id="wfmsOxuhuRaIuoQMw9XY-315" value="REQUEST_IMAGE" style="shape=partialRectangle;connectable=0;fillColor=none;top=0;left=0;bottom=0;right=0;align=left;spacingLeft=6;overflow=hidden;whiteSpace=wrap;html=1;" vertex="1" parent="wfmsOxuhuRaIuoQMw9XY-313">
          <mxGeometry x="30" width="150" height="30" as="geometry">
            <mxRectangle width="150" height="30" as="alternateBounds" />
          </mxGeometry>
        </mxCell>
        <mxCell id="wfmsOxuhuRaIuoQMw9XY-316" value="" style="shape=tableRow;horizontal=0;startSize=0;swimlaneHead=0;swimlaneBody=0;fillColor=none;collapsible=0;dropTarget=0;points=[[0,0.5],[1,0.5]];portConstraint=eastwest;top=0;left=0;right=0;bottom=0;" vertex="1" parent="wfmsOxuhuRaIuoQMw9XY-303">
          <mxGeometry y="150" width="180" height="30" as="geometry" />
        </mxCell>
        <mxCell id="wfmsOxuhuRaIuoQMw9XY-317" value="" style="shape=partialRectangle;connectable=0;fillColor=none;top=0;left=0;bottom=0;right=0;editable=1;overflow=hidden;whiteSpace=wrap;html=1;" vertex="1" parent="wfmsOxuhuRaIuoQMw9XY-316">
          <mxGeometry width="30" height="30" as="geometry">
            <mxRectangle width="30" height="30" as="alternateBounds" />
          </mxGeometry>
        </mxCell>
        <mxCell id="wfmsOxuhuRaIuoQMw9XY-318" value="COVER_LETTER" style="shape=partialRectangle;connectable=0;fillColor=none;top=0;left=0;bottom=0;right=0;align=left;spacingLeft=6;overflow=hidden;whiteSpace=wrap;html=1;" vertex="1" parent="wfmsOxuhuRaIuoQMw9XY-316">
          <mxGeometry x="30" width="150" height="30" as="geometry">
            <mxRectangle width="150" height="30" as="alternateBounds" />
          </mxGeometry>
        </mxCell>
        <mxCell id="wfmsOxuhuRaIuoQMw9XY-319" style="edgeStyle=orthogonalEdgeStyle;rounded=0;orthogonalLoop=1;jettySize=auto;html=1;exitX=0;exitY=0.5;exitDx=0;exitDy=0;entryX=1.001;entryY=0.419;entryDx=0;entryDy=0;endArrow=ERone;endFill=0;startArrow=ERone;startFill=0;entryPerimeter=0;" edge="1" parent="1" source="wfmsOxuhuRaIuoQMw9XY-304" target="wfmsOxuhuRaIuoQMw9XY-96">
          <mxGeometry relative="1" as="geometry">
            <Array as="points">
              <mxPoint x="-796" y="2438" />
              <mxPoint x="-796" y="2450" />
            </Array>
          </mxGeometry>
        </mxCell>
        <mxCell id="wfmsOxuhuRaIuoQMw9XY-320" value="SETTING" style="shape=table;startSize=30;container=1;collapsible=1;childLayout=tableLayout;fixedRows=1;rowLines=0;fontStyle=1;align=center;resizeLast=1;html=1;" vertex="1" parent="1">
          <mxGeometry x="-839" y="2609" width="273.7667643229168" height="120.4117395737594" as="geometry" />
        </mxCell>
        <mxCell id="wfmsOxuhuRaIuoQMw9XY-321" value="" style="shape=tableRow;horizontal=0;startSize=0;swimlaneHead=0;swimlaneBody=0;fillColor=none;collapsible=0;dropTarget=0;points=[[0,0.5],[1,0.5]];portConstraint=eastwest;top=0;left=0;right=0;bottom=1;" vertex="1" parent="wfmsOxuhuRaIuoQMw9XY-320">
          <mxGeometry y="30" width="273.7667643229168" height="30" as="geometry" />
        </mxCell>
        <mxCell id="wfmsOxuhuRaIuoQMw9XY-322" value="PK" style="shape=partialRectangle;connectable=0;fillColor=none;top=0;left=0;bottom=0;right=0;fontStyle=1;overflow=hidden;whiteSpace=wrap;html=1;" vertex="1" parent="wfmsOxuhuRaIuoQMw9XY-321">
          <mxGeometry width="30" height="30" as="geometry">
            <mxRectangle width="30" height="30" as="alternateBounds" />
          </mxGeometry>
        </mxCell>
        <mxCell id="wfmsOxuhuRaIuoQMw9XY-323" value="ID" style="shape=partialRectangle;connectable=0;fillColor=none;top=0;left=0;bottom=0;right=0;align=left;spacingLeft=6;fontStyle=5;overflow=hidden;whiteSpace=wrap;html=1;" vertex="1" parent="wfmsOxuhuRaIuoQMw9XY-321">
          <mxGeometry x="30" width="243.7667643229168" height="30" as="geometry">
            <mxRectangle width="243.7667643229168" height="30" as="alternateBounds" />
          </mxGeometry>
        </mxCell>
        <mxCell id="wfmsOxuhuRaIuoQMw9XY-324" value="" style="shape=tableRow;horizontal=0;startSize=0;swimlaneHead=0;swimlaneBody=0;fillColor=none;collapsible=0;dropTarget=0;points=[[0,0.5],[1,0.5]];portConstraint=eastwest;top=0;left=0;right=0;bottom=0;" vertex="1" parent="wfmsOxuhuRaIuoQMw9XY-320">
          <mxGeometry y="60" width="273.7667643229168" height="30" as="geometry" />
        </mxCell>
        <mxCell id="wfmsOxuhuRaIuoQMw9XY-325" value="FK" style="shape=partialRectangle;connectable=0;fillColor=none;top=0;left=0;bottom=0;right=0;editable=1;overflow=hidden;whiteSpace=wrap;html=1;" vertex="1" parent="wfmsOxuhuRaIuoQMw9XY-324">
          <mxGeometry width="30" height="30" as="geometry">
            <mxRectangle width="30" height="30" as="alternateBounds" />
          </mxGeometry>
        </mxCell>
        <mxCell id="wfmsOxuhuRaIuoQMw9XY-326" value="USER_ID" style="shape=partialRectangle;connectable=0;fillColor=none;top=0;left=0;bottom=0;right=0;align=left;spacingLeft=6;overflow=hidden;whiteSpace=wrap;html=1;" vertex="1" parent="wfmsOxuhuRaIuoQMw9XY-324">
          <mxGeometry x="30" width="243.7667643229168" height="30" as="geometry">
            <mxRectangle width="243.7667643229168" height="30" as="alternateBounds" />
          </mxGeometry>
        </mxCell>
        <mxCell id="wfmsOxuhuRaIuoQMw9XY-327" value="" style="shape=tableRow;horizontal=0;startSize=0;swimlaneHead=0;swimlaneBody=0;fillColor=none;collapsible=0;dropTarget=0;points=[[0,0.5],[1,0.5]];portConstraint=eastwest;top=0;left=0;right=0;bottom=0;" vertex="1" parent="wfmsOxuhuRaIuoQMw9XY-320">
          <mxGeometry y="90" width="273.7667643229168" height="30" as="geometry" />
        </mxCell>
        <mxCell id="wfmsOxuhuRaIuoQMw9XY-328" value="" style="shape=partialRectangle;connectable=0;fillColor=none;top=0;left=0;bottom=0;right=0;editable=1;overflow=hidden;whiteSpace=wrap;html=1;" vertex="1" parent="wfmsOxuhuRaIuoQMw9XY-327">
          <mxGeometry width="30" height="30" as="geometry">
            <mxRectangle width="30" height="30" as="alternateBounds" />
          </mxGeometry>
        </mxCell>
        <mxCell id="wfmsOxuhuRaIuoQMw9XY-329" value="ENABLE_TWO_STEP_AUTHENTICATION" style="shape=partialRectangle;connectable=0;fillColor=none;top=0;left=0;bottom=0;right=0;align=left;spacingLeft=6;overflow=hidden;whiteSpace=wrap;html=1;" vertex="1" parent="wfmsOxuhuRaIuoQMw9XY-327">
          <mxGeometry x="30" width="243.7667643229168" height="30" as="geometry">
            <mxRectangle width="243.7667643229168" height="30" as="alternateBounds" />
          </mxGeometry>
        </mxCell>
        <mxCell id="wfmsOxuhuRaIuoQMw9XY-330" style="edgeStyle=orthogonalEdgeStyle;rounded=0;orthogonalLoop=1;jettySize=auto;html=1;exitX=0;exitY=0.5;exitDx=0;exitDy=0;entryX=0.999;entryY=0.763;entryDx=0;entryDy=0;entryPerimeter=0;endArrow=ERone;endFill=0;startArrow=ERone;startFill=0;" edge="1" parent="1" source="wfmsOxuhuRaIuoQMw9XY-324" target="wfmsOxuhuRaIuoQMw9XY-96">
          <mxGeometry relative="1" as="geometry" />
        </mxCell>
        <mxCell id="wfmsOxuhuRaIuoQMw9XY-331" value="MASTERS_FOLLOWERS" style="shape=table;startSize=30;container=1;collapsible=1;childLayout=tableLayout;fixedRows=1;rowLines=0;fontStyle=1;align=center;resizeLast=1;html=1;" vertex="1" parent="1">
          <mxGeometry x="-1117" y="2272.59" width="180" height="90.4117395737594" as="geometry" />
        </mxCell>
        <mxCell id="wfmsOxuhuRaIuoQMw9XY-335" value="" style="shape=tableRow;horizontal=0;startSize=0;swimlaneHead=0;swimlaneBody=0;fillColor=none;collapsible=0;dropTarget=0;points=[[0,0.5],[1,0.5]];portConstraint=eastwest;top=0;left=0;right=0;bottom=0;" vertex="1" parent="wfmsOxuhuRaIuoQMw9XY-331">
          <mxGeometry y="30" width="180" height="30" as="geometry" />
        </mxCell>
        <mxCell id="wfmsOxuhuRaIuoQMw9XY-336" value="FK" style="shape=partialRectangle;connectable=0;fillColor=none;top=0;left=0;bottom=0;right=0;editable=1;overflow=hidden;whiteSpace=wrap;html=1;" vertex="1" parent="wfmsOxuhuRaIuoQMw9XY-335">
          <mxGeometry width="30" height="30" as="geometry">
            <mxRectangle width="30" height="30" as="alternateBounds" />
          </mxGeometry>
        </mxCell>
        <mxCell id="wfmsOxuhuRaIuoQMw9XY-337" value="MASTER_ID" style="shape=partialRectangle;connectable=0;fillColor=none;top=0;left=0;bottom=0;right=0;align=left;spacingLeft=6;overflow=hidden;whiteSpace=wrap;html=1;" vertex="1" parent="wfmsOxuhuRaIuoQMw9XY-335">
          <mxGeometry x="30" width="150" height="30" as="geometry">
            <mxRectangle width="150" height="30" as="alternateBounds" />
          </mxGeometry>
        </mxCell>
        <mxCell id="wfmsOxuhuRaIuoQMw9XY-338" value="" style="shape=tableRow;horizontal=0;startSize=0;swimlaneHead=0;swimlaneBody=0;fillColor=none;collapsible=0;dropTarget=0;points=[[0,0.5],[1,0.5]];portConstraint=eastwest;top=0;left=0;right=0;bottom=0;" vertex="1" parent="wfmsOxuhuRaIuoQMw9XY-331">
          <mxGeometry y="60" width="180" height="30" as="geometry" />
        </mxCell>
        <mxCell id="wfmsOxuhuRaIuoQMw9XY-339" value="FK" style="shape=partialRectangle;connectable=0;fillColor=none;top=0;left=0;bottom=0;right=0;editable=1;overflow=hidden;whiteSpace=wrap;html=1;" vertex="1" parent="wfmsOxuhuRaIuoQMw9XY-338">
          <mxGeometry width="30" height="30" as="geometry">
            <mxRectangle width="30" height="30" as="alternateBounds" />
          </mxGeometry>
        </mxCell>
        <mxCell id="wfmsOxuhuRaIuoQMw9XY-340" value="FOLLOWER_ID" style="shape=partialRectangle;connectable=0;fillColor=none;top=0;left=0;bottom=0;right=0;align=left;spacingLeft=6;overflow=hidden;whiteSpace=wrap;html=1;" vertex="1" parent="wfmsOxuhuRaIuoQMw9XY-338">
          <mxGeometry x="30" width="150" height="30" as="geometry">
            <mxRectangle width="150" height="30" as="alternateBounds" />
          </mxGeometry>
        </mxCell>
        <mxCell id="wfmsOxuhuRaIuoQMw9XY-341" style="edgeStyle=orthogonalEdgeStyle;rounded=0;orthogonalLoop=1;jettySize=auto;html=1;exitX=0;exitY=0.5;exitDx=0;exitDy=0;entryX=0.999;entryY=0.678;entryDx=0;entryDy=0;entryPerimeter=0;endArrow=ERone;endFill=0;startArrow=ERoneToMany;startFill=0;" edge="1" parent="1" source="wfmsOxuhuRaIuoQMw9XY-335" target="wfmsOxuhuRaIuoQMw9XY-230">
          <mxGeometry relative="1" as="geometry" />
        </mxCell>
        <mxCell id="wfmsOxuhuRaIuoQMw9XY-343" style="edgeStyle=orthogonalEdgeStyle;rounded=0;orthogonalLoop=1;jettySize=auto;html=1;exitX=0;exitY=0.5;exitDx=0;exitDy=0;endArrow=ERone;endFill=0;startArrow=ERmany;startFill=0;entryX=-0.002;entryY=0.201;entryDx=0;entryDy=0;entryPerimeter=0;" edge="1" parent="1" source="wfmsOxuhuRaIuoQMw9XY-338" target="wfmsOxuhuRaIuoQMw9XY-96">
          <mxGeometry relative="1" as="geometry">
            <mxPoint x="-1113" y="2442" as="targetPoint" />
            <Array as="points">
              <mxPoint x="-1137" y="2348" />
              <mxPoint x="-1137" y="2443" />
              <mxPoint x="-1113" y="2443" />
            </Array>
          </mxGeometry>
        </mxCell>
        <mxCell id="wfmsOxuhuRaIuoQMw9XY-344" value="" style="group" vertex="1" connectable="0" parent="1">
          <mxGeometry x="-35" y="1899" width="180" height="120" as="geometry" />
        </mxCell>
        <mxCell id="wfmsOxuhuRaIuoQMw9XY-345" value="Edge brauser" style="verticalAlign=top;align=center;spacingTop=8;spacingLeft=2;spacingRight=12;shape=cube;size=10;direction=south;fontStyle=4;html=1;whiteSpace=wrap;" vertex="1" parent="wfmsOxuhuRaIuoQMw9XY-344">
          <mxGeometry width="180" height="120" as="geometry" />
        </mxCell>
        <mxCell id="wfmsOxuhuRaIuoQMw9XY-346" value="" style="group" vertex="1" connectable="0" parent="wfmsOxuhuRaIuoQMw9XY-344">
          <mxGeometry x="30" y="46" width="100" height="50" as="geometry" />
        </mxCell>
        <mxCell id="wfmsOxuhuRaIuoQMw9XY-347" value="" style="shape=module;align=left;spacingLeft=20;align=center;verticalAlign=top;whiteSpace=wrap;html=1;flipH=0;flipV=0;" vertex="1" parent="wfmsOxuhuRaIuoQMw9XY-346">
          <mxGeometry width="100" height="50" as="geometry" />
        </mxCell>
        <mxCell id="wfmsOxuhuRaIuoQMw9XY-348" value="ReactJS" style="text;html=1;align=center;verticalAlign=middle;resizable=0;points=[];autosize=1;strokeColor=none;fillColor=none;" vertex="1" parent="wfmsOxuhuRaIuoQMw9XY-346">
          <mxGeometry x="15" y="10" width="70" height="30" as="geometry" />
        </mxCell>
        <mxCell id="wfmsOxuhuRaIuoQMw9XY-349" value="" style="group" vertex="1" connectable="0" parent="1">
          <mxGeometry x="287" y="1966" width="180" height="120" as="geometry" />
        </mxCell>
        <mxCell id="wfmsOxuhuRaIuoQMw9XY-350" value="Edge brauser" style="verticalAlign=top;align=center;spacingTop=8;spacingLeft=2;spacingRight=12;shape=cube;size=10;direction=south;fontStyle=4;html=1;whiteSpace=wrap;" vertex="1" parent="wfmsOxuhuRaIuoQMw9XY-349">
          <mxGeometry width="180" height="120" as="geometry" />
        </mxCell>
        <mxCell id="wfmsOxuhuRaIuoQMw9XY-351" value="" style="group" vertex="1" connectable="0" parent="wfmsOxuhuRaIuoQMw9XY-349">
          <mxGeometry x="30" y="46" width="100" height="50" as="geometry" />
        </mxCell>
        <mxCell id="wfmsOxuhuRaIuoQMw9XY-352" value="" style="shape=module;align=left;spacingLeft=20;align=center;verticalAlign=top;whiteSpace=wrap;html=1;flipH=0;flipV=0;" vertex="1" parent="wfmsOxuhuRaIuoQMw9XY-351">
          <mxGeometry width="100" height="50" as="geometry" />
        </mxCell>
        <mxCell id="wfmsOxuhuRaIuoQMw9XY-353" value="NodeJS&lt;div&gt;ExpressJS&lt;/div&gt;" style="text;html=1;align=center;verticalAlign=middle;resizable=0;points=[];autosize=1;strokeColor=none;fillColor=none;" vertex="1" parent="wfmsOxuhuRaIuoQMw9XY-351">
          <mxGeometry x="16" y="5" width="80" height="40" as="geometry" />
        </mxCell>
        <mxCell id="wfmsOxuhuRaIuoQMw9XY-354" value="" style="group" vertex="1" connectable="0" parent="1">
          <mxGeometry x="-35" y="2063" width="180" height="120" as="geometry" />
        </mxCell>
        <mxCell id="wfmsOxuhuRaIuoQMw9XY-355" value="" style="group" vertex="1" connectable="0" parent="wfmsOxuhuRaIuoQMw9XY-354">
          <mxGeometry width="180" height="120" as="geometry" />
        </mxCell>
        <mxCell id="wfmsOxuhuRaIuoQMw9XY-356" value="Database Server" style="verticalAlign=top;align=center;spacingTop=8;spacingLeft=2;spacingRight=12;shape=cube;size=10;direction=south;fontStyle=4;html=1;whiteSpace=wrap;" vertex="1" parent="wfmsOxuhuRaIuoQMw9XY-355">
          <mxGeometry width="180" height="120" as="geometry" />
        </mxCell>
        <mxCell id="wfmsOxuhuRaIuoQMw9XY-357" value="PostreSQL" style="strokeWidth=2;html=1;shape=mxgraph.flowchart.database;whiteSpace=wrap;" vertex="1" parent="wfmsOxuhuRaIuoQMw9XY-355">
          <mxGeometry x="40" y="40" width="100" height="60" as="geometry" />
        </mxCell>
        <mxCell id="wfmsOxuhuRaIuoQMw9XY-358" value="" style="rounded=0;orthogonalLoop=1;jettySize=auto;html=1;exitX=0;exitY=0;exitDx=55;exitDy=0;exitPerimeter=0;entryX=0;entryY=0;entryDx=65;entryDy=180;entryPerimeter=0;startArrow=classicThin;startFill=1;endArrow=classicThin;endFill=1;" edge="1" parent="1" source="wfmsOxuhuRaIuoQMw9XY-345" target="wfmsOxuhuRaIuoQMw9XY-350">
          <mxGeometry x="0.0214" y="18" relative="1" as="geometry">
            <mxPoint as="offset" />
          </mxGeometry>
        </mxCell>
        <mxCell id="wfmsOxuhuRaIuoQMw9XY-359" value="HTTP 1.1" style="text;html=1;align=center;verticalAlign=middle;resizable=0;points=[];autosize=1;strokeColor=none;fillColor=none;rotation=30;" vertex="1" parent="1">
          <mxGeometry x="177" y="1966" width="69" height="26" as="geometry" />
        </mxCell>
        <mxCell id="wfmsOxuhuRaIuoQMw9XY-360" value="" style="rounded=0;orthogonalLoop=1;jettySize=auto;html=1;exitX=0;exitY=0;exitDx=55;exitDy=0;exitPerimeter=0;entryX=0;entryY=0;entryDx=65;entryDy=180;entryPerimeter=0;startArrow=classicThin;startFill=1;endArrow=classicThin;endFill=1;" edge="1" parent="1" source="wfmsOxuhuRaIuoQMw9XY-356" target="wfmsOxuhuRaIuoQMw9XY-350">
          <mxGeometry x="0.0214" y="18" relative="1" as="geometry">
            <mxPoint x="155" y="1964" as="sourcePoint" />
            <mxPoint x="297" y="2041" as="targetPoint" />
            <mxPoint as="offset" />
          </mxGeometry>
        </mxCell>
        <mxCell id="wfmsOxuhuRaIuoQMw9XY-361" value="TCP" style="text;html=1;align=center;verticalAlign=middle;resizable=0;points=[];autosize=1;strokeColor=none;fillColor=none;rotation=-30;" vertex="1" parent="1">
          <mxGeometry x="177" y="2060" width="42" height="26" as="geometry" />
        </mxCell>
      </root>
    </mxGraphModel>
  </diagram>
</mxfile>
